<?xml version="1.0" encoding="UTF-8" standalone="no"?>
<!-- Created with Inkscape (http://www.inkscape.org/) -->

<svg
   width="210mm"
   height="297mm"
   viewBox="0 0 210 297"
   version="1.1"
   id="svg1"
   xml:space="preserve"
   inkscape:version="1.4.2 (ebf0e940d0, 2025-05-08)"
   sodipodi:docname="flyer_tournament.svg"
   xmlns:inkscape="http://www.inkscape.org/namespaces/inkscape"
   xmlns:sodipodi="http://sodipodi.sourceforge.net/DTD/sodipodi-0.dtd"
   xmlns:xlink="http://www.w3.org/1999/xlink"
   xmlns="http://www.w3.org/2000/svg"
   xmlns:svg="http://www.w3.org/2000/svg"><sodipodi:namedview
     id="namedview1"
     pagecolor="#ffffff"
     bordercolor="#666666"
     borderopacity="1.0"
     inkscape:showpageshadow="2"
     inkscape:pageopacity="0.0"
     inkscape:pagecheckerboard="0"
     inkscape:deskcolor="#d1d1d1"
     inkscape:document-units="mm"
     showguides="true"
     showgrid="true"
     showborder="true"
     inkscape:zoom="0.7046647"
     inkscape:cx="434.24908"
     inkscape:cy="738.64918"
     inkscape:window-width="1920"
     inkscape:window-height="1049"
     inkscape:window-x="0"
     inkscape:window-y="0"
     inkscape:window-maximized="1"
     inkscape:current-layer="g1"><sodipodi:guide
       position="210,0"
       orientation="0,-793.70079"
       id="guide9"
       inkscape:locked="false" /></sodipodi:namedview><defs
     id="defs1"><linearGradient
       id="linearGradient20"
       inkscape:collect="always"><stop
         style="stop-color:#ffefc7;stop-opacity:1;"
         offset="0"
         id="stop20" /><stop
         style="stop-color:#ffffff;stop-opacity:1;"
         offset="1"
         id="stop21" /></linearGradient><rect
       x="463.34093"
       y="65.279274"
       width="108.91705"
       height="76.277412"
       id="rect9" /><rect
       x="510.88127"
       y="123.81775"
       width="55.345471"
       height="39.025653"
       id="rect8" /><rect
       x="192.99959"
       y="537.84445"
       width="395.93299"
       height="117.78652"
       id="rect6" /><rect
       x="298.01408"
       y="605.96195"
       width="376.06538"
       height="89.404223"
       id="rect5" /><rect
       x="76.632191"
       y="1034.5346"
       width="266.79355"
       height="53.926357"
       id="rect7" /><rect
       x="58.201004"
       y="260.90105"
       width="601.36712"
       height="371.06418"
       id="rect2" /><rect
       x="104.36042"
       y="343.18523"
       width="369.27534"
       height="174.60301"
       id="rect1" /><rect
       x="58.201004"
       y="260.90105"
       width="772.61039"
       height="371.49205"
       id="rect12" /><rect
       x="58.201004"
       y="260.90105"
       width="393.4771"
       height="387.36275"
       id="rect15" /><rect
       x="58.201004"
       y="260.90105"
       width="393.4771"
       height="387.36275"
       id="rect17" /><rect
       x="58.201004"
       y="260.90105"
       width="393.4771"
       height="387.36275"
       id="rect19" /><rect
       x="58.201004"
       y="260.90105"
       width="454.57616"
       height="384.86891"
       id="rect21" /><rect
       x="58.201004"
       y="260.90105"
       width="393.4771"
       height="387.36275"
       id="rect26" /><rect
       x="58.201004"
       y="260.90105"
       width="581.77231"
       height="379.74047"
       id="rect3" /><rect
       x="58.201004"
       y="260.90105"
       width="532.78654"
       height="378.5457"
       id="rect4" /><rect
       x="76.632195"
       y="1034.5345"
       width="266.79355"
       height="53.926357"
       id="rect7-9" /><rect
       x="76.632195"
       y="1034.5345"
       width="266.79355"
       height="53.926357"
       id="rect13" /><rect
       x="76.632195"
       y="1034.5345"
       width="259.59491"
       height="53.926357"
       id="rect16" /><rect
       x="76.632195"
       y="1034.5345"
       width="266.79355"
       height="53.926357"
       id="rect18" /><linearGradient
       inkscape:collect="always"
       xlink:href="#linearGradient20"
       id="linearGradient21"
       x1="264.39032"
       y1="803.91052"
       x2="258.93372"
       y2="-56.768791"
       gradientUnits="userSpaceOnUse" /><rect
       x="192.99959"
       y="537.84445"
       width="442.88742"
       height="124.77973"
       id="rect22" /></defs><g
     inkscape:label="Layer 1"
     inkscape:groupmode="layer"
     id="layer1"><g
       id="g1"
       transform="matrix(0.35289834,0,0,0.35289834,10.14301,13.396111)"
       style="stroke-width:0.749744"><g
         transform="matrix(0.1,0,0,-0.1,-86.993565,82.490551)"
         fill="#9a9a9a"
         stroke="none"
         id="g74"
         style="stroke-width:0.749744" /><text
         xml:space="preserve"
         transform="matrix(0.74974377,0,0,0.74974377,-36.189825,-60.303676)"
         id="text1"
         style="font-style:normal;font-variant:normal;font-weight:normal;font-stretch:normal;font-size:21.3333px;line-height:1.25;font-family:Helvetica;-inkscape-font-specification:Helvetica;text-align:center;letter-spacing:0px;word-spacing:0px;white-space:pre;shape-inside:url(#rect1);display:inline" /><path
         id="rect20"
         style="opacity:1;fill:url(#linearGradient21);stroke:#ffffff;stroke-width:0.561068;paint-order:markers fill stroke"
         d="M -48.177604,-60.530518 H 574.51102 c 0.90302,0 1.62999,0.726976 1.62999,1.62999 V 815.07039 c 0,0.90301 -0.72697,1.62999 -1.62999,1.62999 H -48.177604 c -0.903015,0 -1.62999,-0.72698 -1.62999,-1.62999 V -58.900528 c 0,-0.903014 0.726975,-1.62999 1.62999,-1.62999 z" /><g
         id="text2"
         style="font-size:74.979px;line-height:1.25;font-family:'TeX Gyre Chorus';-inkscape-font-specification:'TeX Gyre Chorus';text-align:center;letter-spacing:0px;word-spacing:0px;white-space:pre;stroke-width:0.65877"
         transform="matrix(0.85328064,0,0,0.85328064,-37.419699,-205.07607)"
         aria-label="&#10;CHESS TOURNAMENT"><path
           style="font-weight:bold;font-family:rOBOTO;-inkscape-font-specification:'rOBOTO Bold';letter-spacing:8.7866px;text-anchor:middle"
           d="m 269.71907,402.77443 q -0.62238,8.60355 -6.37028,13.54601 -5.71129,4.94247 -15.08367,4.94247 -10.25103,0 -16.14538,-6.88284 -5.85773,-6.91945 -5.85773,-18.96442 v -3.25836 q 0,-7.68828 2.7092,-13.54601 2.7092,-5.85774 7.72489,-8.96966 5.05229,-3.14853 11.71546,-3.14853 9.22594,0 14.864,4.94246 5.63807,4.94247 6.51673,13.87551 h -10.98325 q -0.40272,-5.16213 -2.89225,-7.46861 -2.45293,-2.34309 -7.50523,-2.34309 -5.49162,0 -8.23743,3.95397 -2.70921,3.91736 -2.78243,12.19141 v 4.02719 q 0,8.64016 2.59937,12.63074 2.63598,3.99058 8.27405,3.99058 5.08891,0 7.57844,-2.30648 2.52615,-2.3431 2.89226,-7.21234 z m 59.38278,17.75626 H 318.1186 v -22.84516 h -21.41734 v 22.84516 h -10.98325 v -53.30538 h 10.98325 v 21.60039 h 21.41734 v -21.60039 h 10.98325 z m 50.44973,-23.10144 h -21.08784 v 14.27823 h 24.74893 v 8.82321 h -35.73218 v -53.30538 h 35.65895 v 8.89643 h -24.6757 v 12.70396 h 21.08784 z m 46.53237,9.1161 q 0,-3.11192 -2.19665,-4.75941 -2.19665,-1.6841 -7.90794,-3.51464 -5.71129,-1.86715 -9.04288,-3.66108 -9.07948,-4.90586 -9.07948,-13.21652 0,-4.32008 2.41631,-7.68827 2.45293,-3.40481 6.99267,-5.30857 4.57636,-1.90377 10.25104,-1.90377 5.71129,0 10.17781,2.08682 4.46652,2.05021 6.91945,5.82112 2.48953,3.77092 2.48953,8.56694 h -10.98325 q 0,-3.66108 -2.30648,-5.67468 -2.30648,-2.05021 -6.48012,-2.05021 -4.02719,0 -6.26045,1.72071 -2.23326,1.6841 -2.23326,4.46652 0,2.59937 2.59937,4.35669 2.63598,1.75732 7.72488,3.29498 9.37238,2.81903 13.65585,6.99267 4.28346,4.17363 4.28346,10.39748 0,6.91945 -5.23535,10.87342 -5.23535,3.91736 -14.09517,3.91736 -6.15062,0 -11.20291,-2.23327 -5.0523,-2.26987 -7.72489,-6.18723 -2.63598,-3.91736 -2.63598,-9.07949 h 11.01986 q 0,8.82322 10.54392,8.82322 3.91736,0 6.11401,-1.57427 2.19665,-1.61088 2.19665,-4.46652 z m 54.87966,0 q 0,-3.11192 -2.19665,-4.75941 -2.19665,-1.6841 -7.90795,-3.51464 -5.71129,-1.86715 -9.04287,-3.66108 -9.07949,-4.90586 -9.07949,-13.21652 0,-4.32008 2.41631,-7.68827 2.45293,-3.40481 6.99267,-5.30857 4.57636,-1.90377 10.25104,-1.90377 5.71129,0 10.17781,2.08682 4.46652,2.05021 6.91945,5.82112 2.48954,3.77092 2.48954,8.56694 h -10.98325 q 0,-3.66108 -2.30649,-5.67468 -2.30648,-2.05021 -6.48011,-2.05021 -4.0272,0 -6.26046,1.72071 -2.23326,1.6841 -2.23326,4.46652 0,2.59937 2.59937,4.35669 2.63598,1.75732 7.72489,3.29498 9.37237,2.81903 13.65584,6.99267 4.28347,4.17363 4.28347,10.39748 0,6.91945 -5.23535,10.87342 -5.23535,3.91736 -14.09517,3.91736 -6.15063,0 -11.20292,-2.23327 -5.0523,-2.26987 -7.72489,-6.18723 -2.63598,-3.91736 -2.63598,-9.07949 h 11.01986 q 0,8.82322 10.54393,8.82322 3.91736,0 6.11401,-1.57427 2.19665,-1.61088 2.19665,-4.46652 z"
           id="path20" /><path
           style="font-weight:bold;font-family:rOBOTO;-inkscape-font-specification:'rOBOTO Bold';letter-spacing:8.7866px;text-anchor:middle"
           d="M 111.98128,469.99546 H 95.652845 v 44.40895 H 84.669593 V 469.99546 H 68.560825 v -8.89643 h 43.420455 z m 57.80851,18.96441 q 0,7.87133 -2.78242,13.80229 -2.78242,5.93096 -7.98116,9.15271 -5.16213,3.22175 -11.86192,3.22175 -6.62656,0 -11.8253,-3.18514 -5.19873,-3.18514 -8.05438,-9.07949 -2.85565,-5.93095 -2.89226,-13.61923 v -2.63598 q 0,-7.87133 2.81904,-13.8389 2.85564,-6.00417 8.01777,-9.18932 5.19874,-3.22175 11.86191,-3.22175 6.66318,0 11.8253,3.22175 5.19874,3.18515 8.01778,9.18932 2.85564,5.96757 2.85564,13.80229 z m -11.12969,-2.41631 q 0,-8.38388 -3.00209,-12.74057 -3.00209,-4.35669 -8.56694,-4.35669 -5.52823,0 -8.53032,4.32008 -3.00209,4.28346 -3.0387,12.59412 v 2.59937 q 0,8.16422 3.00209,12.66735 3.00209,4.50314 8.64015,4.50314 5.52824,0 8.49372,-4.32008 2.96548,-4.35669 3.00209,-12.66735 z m 68.2426,-25.44453 v 35.10979 q 0,8.74999 -5.49163,13.8389 -5.45502,5.0889 -14.93722,5.0889 -9.33577,0 -14.82739,-4.94246 -5.49163,-4.94246 -5.60146,-13.58262 v -35.51251 h 10.98325 v 35.18301 q 0,5.23535 2.48954,7.65167 2.52615,2.3797 6.95606,2.3797 9.26254,0 9.40898,-9.73848 v -35.4759 z m 37.52611,33.7918 h -8.74999 v 19.51358 h -10.98325 v -53.30538 h 19.80646 q 9.4456,0 14.57111,4.21024 5.12552,4.21025 5.12552,11.89853 0,5.45501 -2.3797,9.11609 -2.3431,3.62448 -7.13912,5.78452 l 11.53242,21.78345 v 0.51255 h -11.78869 z m -8.74999,-8.89643 h 8.85982 q 4.13703,0 6.4069,-2.08682 2.26987,-2.12343 2.26987,-5.82112 0,-3.77092 -2.16004,-5.93096 -2.12343,-2.16004 -6.55334,-2.16004 h -8.82321 z m 89.00094,28.41001 h -10.98325 l -21.38073,-35.07319 v 35.07319 h -10.98325 v -53.30538 h 10.98325 l 21.41734,35.1464 v -35.1464 h 10.94664 z m 49.13175,-10.98325 h -19.2573 l -3.66108,10.98325 h -11.67886 l 19.84307,-53.30538 h 10.17782 l 19.9529,53.30538 h -11.67885 z m -16.29182,-8.89644 h 13.32634 l -6.69978,-19.9529 z m 59.78549,-33.42569 13.69245,38.66104 13.61923,-38.66104 h 14.42467 v 53.30538 h -11.01986 v -14.57112 l 1.09833,-25.15164 -14.38806,39.72276 h -7.54183 l -14.35145,-39.68615 1.09832,25.11503 v 14.57112 h -10.98325 v -53.30538 z m 92.18608,30.20394 h -21.08785 v 14.27822 h 24.74893 v 8.82322 h -35.73218 v -53.30538 h 35.65896 v 8.89643 h -24.67571 v 12.70396 h 21.08785 z m 62.23841,23.10144 h -10.98325 l -21.38073,-35.07319 v 35.07319 h -10.98325 v -53.30538 h 10.98325 l 21.41734,35.1464 v -35.1464 h 10.94664 z m 57.4424,-44.40895 h -16.32843 v 44.40895 h -10.98325 v -44.40895 h -16.10877 v -8.89643 h 43.42045 z"
           id="path21" /></g><g
         id="text3"
         style="font-size:25.774px;line-height:1.25;font-family:'TeX Gyre Chorus';-inkscape-font-specification:'TeX Gyre Chorus';text-align:center;letter-spacing:1.75732px;word-spacing:0px;white-space:pre;stroke-width:0.631221"
         inkscape:transform-center-x="24.957025"
         inkscape:transform-center-y="-3.7170038"
         transform="matrix(0.89052115,0,0,0.89052115,-42.517864,247.40004)"
         aria-label="AUGUST 12TH @ 7PM&#10;DRIFTWOOD KAVA &amp; ROASTERY ST. PETE "><path
           style="font-weight:900;font-family:Roboto;-inkscape-font-specification:'Roboto Heavy'"
           d="m 216.00608,280.08108 h -6.05336 l -1.05714,3.42311 h -4.71936 l 6.72037,-18.3237 h 4.15304 l 6.77071,18.3237 h -4.74453 z m -4.99622,-3.41053 h 3.93909 l -1.97584,-6.3554 z m 28.05988,-11.49006 v 11.99346 q 0,2.03877 -0.86836,3.53638 -0.86836,1.48502 -2.49182,2.26529 -1.62346,0.78027 -3.83841,0.78027 -3.3476,0 -5.2731,-1.73673 -1.9255,-1.73672 -1.96326,-4.75711 v -12.08156 h 4.44249 v 12.16965 q 0.0755,3.00781 2.79387,3.00781 1.37176,0 2.07651,-0.7551 0.70476,-0.7551 0.70476,-2.45407 v -11.96829 z m 19.5147,16.05841 q -1.01938,1.13264 -2.98263,1.82482 -1.96326,0.69217 -4.30406,0.69217 -3.5993,0 -5.75133,-2.20237 -2.15202,-2.20237 -2.30304,-6.12888 l -0.0126,-1.5857 q 0,-2.70577 0.95646,-4.71936 0.95646,-2.02618 2.73093,-3.10849 1.78707,-1.09489 4.12787,-1.09489 3.42311,0 5.31086,1.57312 1.90032,1.56054 2.21495,4.66902 h -4.25372 q -0.22653,-1.53536 -0.98163,-2.18978 -0.75509,-0.65442 -2.13944,-0.65442 -1.66121,0 -2.56733,1.40952 -0.90612,1.40951 -0.9187,4.02718 v 1.10748 q 0,2.74352 0.93128,4.12787 0.94388,1.37176 2.95747,1.37176 1.72414,0 2.56733,-0.76768 v -2.84421 h -3.07073 v -3.03297 h 7.48805 z m 18.69668,-16.05841 v 11.99346 q 0,2.03877 -0.86836,3.53638 -0.86837,1.48502 -2.49183,2.26529 -1.62346,0.78027 -3.83841,0.78027 -3.3476,0 -5.2731,-1.73673 -1.9255,-1.73672 -1.96325,-4.75711 v -12.08156 h 4.44249 v 12.16965 q 0.0755,3.00781 2.79386,3.00781 1.37176,0 2.07652,-0.7551 0.70476,-0.7551 0.70476,-2.45407 v -11.96829 z m 13.96474,13.45332 q 0,-0.96904 -0.69218,-1.5102 -0.67958,-0.54115 -2.40372,-1.12006 -1.72414,-0.57891 -2.81904,-1.12006 -3.56154,-1.74931 -3.56154,-4.80745 0,-1.52278 0.88095,-2.6806 0.89353,-1.1704 2.51699,-1.81224 1.62346,-0.65441 3.64964,-0.65441 1.97584,0 3.53637,0.70475 1.57312,0.70476 2.44148,2.0136 0.86837,1.29625 0.86837,2.97005 h -4.40474 q 0,-1.12006 -0.69217,-1.73673 -0.67959,-0.61666 -1.84999,-0.61666 -1.18299,0 -1.87516,0.52857 -0.67959,0.51598 -0.67959,1.32142 0,0.70476 0.7551,1.28367 0.7551,0.56632 2.65543,1.18298 1.90033,0.60408 3.12107,1.30884 2.97005,1.71155 2.97005,4.71936 0,2.40373 -1.81224,3.77549 -1.81223,1.37176 -4.97106,1.37176 -2.22753,0 -4.03977,-0.79285 -1.79965,-0.80544 -2.71835,-2.18979 -0.90612,-1.39693 -0.90612,-3.20916 h 4.42991 q 0,1.47244 0.7551,2.1772 0.76768,0.69217 2.47923,0.69217 1.09489,0 1.72414,-0.46565 0.64184,-0.47822 0.64184,-1.334 z m 22.82454,-10.0428 h -5.49963 v 14.91318 h -4.41732 v -14.91318 h -5.39895 v -3.41052 h 15.3159 z m 20.17712,14.91318 h -4.25371 v -13.54142 l -4.17821,1.22074 v -3.22175 l 8.04179,-2.78127 h 0.39013 z m 20.06844,0 h -12.78632 v -2.76869 l 5.88976,-6.1918 q 2.1772,-2.47924 2.1772,-3.9391 0,-1.18298 -0.51598,-1.79965 -0.51599,-0.61666 -1.49761,-0.61666 -0.96905,0 -1.57312,0.83061 -0.60408,0.81802 -0.60408,2.05135 h -4.25372 q 0,-1.68639 0.84319,-3.10849 0.8432,-1.43468 2.34081,-2.24012 1.49761,-0.80544 3.3476,-0.80544 2.97005,0 4.56834,1.37176 1.61087,1.37176 1.61087,3.93909 0,1.08231 -0.40272,2.11428 -0.40272,1.01938 -1.25849,2.15203 -0.8432,1.12006 -2.73094,3.0078 l -2.36597,2.73094 h 7.21118 z m 18.54567,-14.91318 H 367.362 v 14.91318 h -4.41732 v -14.91318 h -5.39895 v -3.41052 h 15.3159 z m 18.93578,14.91318 h -4.39215 v -7.65166 h -6.50642 v 7.65166 h -4.41732 v -18.3237 h 4.41732 v 7.2741 h 6.50642 v -7.2741 h 4.39215 z m 33.44168,-6.92173 q -0.12585,3.28468 -1.63605,5.23534 -1.51019,1.95067 -4.02719,1.95067 -1.03196,0 -1.82482,-0.44047 -0.79285,-0.45306 -1.23332,-1.27108 -1.23333,1.66121 -3.30985,1.66121 -1.20815,0 -2.11427,-0.70475 -0.90612,-0.71735 -1.33401,-2.02618 -0.4153,-1.30884 -0.25169,-2.97005 0.37754,-3.14624 2.02617,-5.05916 1.64863,-1.91291 4.03978,-1.91291 1.84999,0 3.18399,0.85577 l 0.79285,0.52857 -0.64183,7.38738 q -0.21394,1.7493 1.20816,1.7493 1.06972,0 1.78706,-1.35917 0.72993,-1.37176 0.80544,-3.49862 0.21394,-4.20338 -1.74931,-6.49384 -1.95067,-2.29046 -5.72616,-2.29046 -2.40373,0 -4.27888,1.23332 -1.86258,1.22074 -2.95747,3.47345 -1.08231,2.24013 -1.22074,5.1095 -0.20136,4.40473 1.76189,6.73295 1.96326,2.3408 5.88976,2.3408 1.05714,0 2.24013,-0.2517 1.18298,-0.23911 1.9255,-0.56632 l 0.46564,2.0891 q -0.76768,0.5034 -2.07652,0.80544 -1.29625,0.31463 -2.60508,0.31463 -3.4357,0 -5.81426,-1.32142 -2.36597,-1.30884 -3.52379,-3.88876 -1.15781,-2.57991 -1.03196,-6.25472 0.15102,-3.47345 1.59829,-6.21697 1.45985,-2.75611 3.97684,-4.25372 2.52958,-1.5102 5.70099,-1.5102 3.17141,0 5.47446,1.32142 2.30305,1.30884 3.46086,3.77549 1.15782,2.46666 1.01939,5.72616 z m -12.58496,1.43469 q -0.13844,1.63604 0.25169,2.47923 0.40272,0.83061 1.28367,0.83061 0.59149,0 1.08231,-0.52857 0.5034,-0.52857 0.8306,-1.51019 l 0.5034,-5.73875 q -0.37755,-0.10068 -0.78026,-0.10068 -1.40952,0 -2.1772,1.10748 -0.7551,1.09489 -0.99421,3.46087 z m 37.3556,-10.57137 -6.84622,16.05841 h -4.48024 l 6.8588,-15.05161 h -8.73396 v -3.27209 h 13.20162 z m 8.62872,9.84144 v 6.21697 h -4.41733 v -18.3237 h 7.31187 q 2.10169,0 3.71256,0.78026 1.62346,0.76769 2.50441,2.20237 0.89353,1.4221 0.89353,3.23434 0,2.68059 -1.9255,4.29147 -1.91291,1.59829 -5.26051,1.59829 z m 0,-3.41053 h 2.89454 q 1.28366,0 1.95067,-0.64183 0.67958,-0.64183 0.67958,-1.81223 0,-1.28367 -0.69217,-2.05135 -0.69217,-0.76769 -1.88774,-0.78027 h -2.94488 z m 19.91742,-8.6962 4.09012,12.74856 4.07752,-12.74856 h 5.81425 v 18.3237 h -4.4299 v -4.27889 l 0.42789,-8.75913 -4.42991,13.03802 h -2.91971 l -4.44249,-13.05061 0.42789,8.77172 v 4.27889 h -4.41732 v -18.3237 z"
           id="path18" /><path
           style="font-weight:900;font-family:Roboto;-inkscape-font-specification:'Roboto Heavy'"
           d="m 74.973848,315.77323 v -18.3237 h 5.902346 q 2.428898,0 4.366982,1.10748 1.938084,1.09489 3.02039,3.10848 1.094892,2.00101 1.107477,4.49283 v 0.84319 q 0,2.517 -1.069722,4.518 -1.057136,1.98843 -2.99522,3.12108 -1.9255,1.12006 -4.304057,1.13264 z m 4.417321,-14.91318 v 11.51524 h 1.535365 q 1.900329,0 2.919711,-1.34659 1.019382,-1.35917 1.019382,-4.02719 v -0.79285 q 0,-2.65543 -1.019382,-4.00202 -1.019382,-1.34659 -2.970051,-1.34659 z m 20.810951,8.44451 h -2.391142 v 6.46867 h -4.417321 v -18.3237 h 7.211183 q 3.2595,0 5.09691,1.44727 1.8374,1.44727 1.8374,4.09011 0,1.91292 -0.78026,3.17141 -0.76769,1.2585 -2.41632,2.03877 l 3.82583,7.38737 v 0.18877 h -4.73194 z m -2.391142,-3.41052 h 2.793862 q 1.2585,0 1.88774,-0.65442 0.64184,-0.667 0.64184,-1.84999 0,-1.18299 -0.64184,-1.84999 -0.64183,-0.67959 -1.88774,-0.67959 h -2.793862 z m 18.860282,9.87919 h -4.40474 v -18.3237 h 4.40474 z m 16.36846,-7.29928 h -7.12309 v 7.29928 h -4.41732 v -18.3237 h 12.25775 v 3.41052 h -7.84043 v 4.21596 h 7.12309 z m 18.94838,-7.6139 h -5.49963 v 14.91318 h -4.41732 v -14.91318 h -5.39895 v -3.41052 h 15.3159 z m 18.0045,8.07955 2.10169,-11.49007 h 4.37956 l -3.88875,18.3237 h -4.58093 l -2.45406,-10.44552 -2.40373,10.44552 h -4.56834 l -3.90134,-18.3237 h 4.39215 l 2.10169,11.49007 2.51699,-11.49007 h 3.75032 z m 25.47997,-1.95067 q 0,2.6806 -0.99421,4.74453 -0.99421,2.06393 -2.83162,3.18399 -1.82481,1.10748 -4.16562,1.10748 -2.3408,0 -4.15303,-1.06972 -1.81224,-1.08231 -2.83162,-3.08332 -1.0068,-2.001 -1.05714,-4.59351 v -1.03196 q 0,-2.69319 0.98163,-4.74453 0.99421,-2.06394 2.83162,-3.184 1.84998,-1.12006 4.20337,-1.12006 2.32822,0 4.15304,1.10748 1.82482,1.10747 2.83162,3.15882 1.01938,2.03876 1.03196,4.68161 z m -4.49283,-0.76768 q 0,-2.73094 -0.9187,-4.14046 -0.90612,-1.4221 -2.60509,-1.4221 -3.32243,0 -3.5112,4.98365 l -0.0126,1.34659 q 0,2.69318 0.89354,4.14045 0.89353,1.44727 2.65542,1.44727 1.6738,0 2.57992,-1.4221 0.90612,-1.4221 0.9187,-4.09011 z m 24.04528,0.76768 q 0,2.6806 -0.99421,4.74453 -0.99421,2.06393 -2.83161,3.18399 -1.82482,1.10748 -4.16563,1.10748 -2.3408,0 -4.15303,-1.06972 -1.81224,-1.08231 -2.83162,-3.08332 -1.0068,-2.001 -1.05714,-4.59351 v -1.03196 q 0,-2.69319 0.98163,-4.74453 0.99421,-2.06394 2.83162,-3.184 1.84999,-1.12006 4.20337,-1.12006 2.32822,0 4.15304,1.10748 1.82482,1.10747 2.83162,3.15882 1.01938,2.03876 1.03196,4.68161 z m -4.49283,-0.76768 q 0,-2.73094 -0.9187,-4.14046 -0.90612,-1.4221 -2.60509,-1.4221 -3.32243,0 -3.5112,4.98365 l -0.0126,1.34659 q 0,2.69318 0.89353,4.14045 0.89353,1.44727 2.65542,1.44727 1.6738,0 2.57992,-1.4221 0.90612,-1.4221 0.9187,-4.09011 z m 8.52804,9.55198 v -18.3237 h 5.90234 q 2.4289,0 4.36699,1.10748 1.93808,1.09489 3.02039,3.10848 1.09489,2.00101 1.10747,4.49283 v 0.84319 q 0,2.517 -1.06972,4.518 -1.05714,1.98843 -2.99522,3.12108 -1.9255,1.12006 -4.30406,1.13264 z m 4.41732,-14.91318 v 11.51524 h 1.53536 q 1.90033,0 2.91972,-1.34659 1.01938,-1.35917 1.01938,-4.02719 v -0.79285 q 0,-2.65543 -1.01938,-4.00202 -1.01939,-1.34659 -2.97006,-1.34659 z m 28.40769,8.09213 -1.81223,1.98843 v 4.83262 h -4.41732 v -18.3237 h 4.41732 v 8.07954 l 1.53536,-2.32821 3.95168,-5.75133 h 5.46187 l -6.1918,8.10471 6.1918,10.21899 h -5.23534 z m 22.42183,3.39794 h -6.05337 l -1.05713,3.42311 h -4.71936 l 6.72037,-18.3237 h 4.15303 l 6.77071,18.3237 h -4.74453 z m -4.99623,-3.41052 h 3.93909 l -1.97583,-6.35541 z m 20.04327,1.84999 3.64964,-13.34006 h 4.9333 l -6.16663,18.3237 h -4.83262 l -6.11629,-18.3237 h 4.89555 z m 21.13816,1.56053 h -6.05337 l -1.05714,3.42311 h -4.71936 l 6.72037,-18.3237 h 4.15304 l 6.77071,18.3237 h -4.74453 z m -4.99623,-3.41052 h 3.93909 l -1.97584,-6.35541 z m 24.60702,-2.81903 q -0.74251,-1.05714 -1.1704,-2.0136 -0.4153,-0.95645 -0.4153,-1.97584 0,-2.21495 1.43469,-3.57412 1.43468,-1.37177 3.75031,-1.37177 2.07652,0 3.4357,1.27109 1.35917,1.25849 1.35917,3.13365 0,2.3408 -2.57991,4.15304 l -0.95646,0.667 2.81903,3.23434 q 0.69217,-1.38435 0.69217,-3.03298 h 3.56155 q 0,3.71256 -1.71156,5.95269 l 2.79386,3.20916 h -4.73194 l -0.85578,-0.96904 q -1.05714,0.62925 -2.16461,0.93129 -1.09489,0.30204 -2.47924,0.30204 -2.71835,0 -4.3544,-1.4221 -1.63604,-1.43469 -1.63604,-3.76291 0,-1.27108 0.64183,-2.30305 0.65442,-1.03196 2.52958,-2.40372 z m 3.05815,6.64486 q 1.10748,0 2.11427,-0.51599 l -3.29726,-3.75032 -0.11326,0.0755 q -0.71734,0.88095 -0.71734,1.98843 0,0.9187 0.5789,1.56053 0.57891,0.64184 1.43469,0.64184 z m -0.98163,-10.68464 q 0,0.88095 0.95646,2.13945 l 0.84319,-0.52857 q 0.57891,-0.37755 0.84319,-0.78027 0.26429,-0.40272 0.26429,-1.01938 0,-0.57891 -0.40272,-1.0068 -0.40272,-0.42789 -0.99421,-0.42789 -0.70476,0 -1.10748,0.45306 -0.40272,0.44048 -0.40272,1.1704 z m 29.5026,7.22377 h -2.39114 v 6.46867 h -4.41732 v -18.3237 h 7.21118 q 3.25951,0 5.09691,1.44727 1.83741,1.44727 1.83741,4.09011 0,1.91292 -0.78027,3.17141 -0.76768,1.2585 -2.41631,2.03877 l 3.82582,7.38737 v 0.18877 h -4.73194 z m -2.39114,-3.41052 h 2.79386 q 1.2585,0 1.88775,-0.65442 0.64183,-0.667 0.64183,-1.84999 0,-1.18299 -0.64183,-1.84999 -0.64184,-0.67959 -1.88775,-0.67959 h -2.79386 z m 29.67077,1.09489 q 0,2.6806 -0.99421,4.74453 -0.99422,2.06393 -2.83162,3.18399 -1.82482,1.10748 -4.16562,1.10748 -2.34081,0 -4.15304,-1.06972 -1.81223,-1.08231 -2.83162,-3.08332 -1.00679,-2.001 -1.05713,-4.59351 v -1.03196 q 0,-2.69319 0.98162,-4.74453 0.99422,-2.06394 2.83162,-3.184 1.84999,-1.12006 4.20338,-1.12006 2.32822,0 4.15303,1.10748 1.82482,1.10747 2.83162,3.15882 1.01938,2.03876 1.03197,4.68161 z m -4.49283,-0.76768 q 0,-2.73094 -0.91871,-4.14046 -0.90611,-1.4221 -2.60508,-1.4221 -3.32243,0 -3.51121,4.98365 l -0.0126,1.34659 q 0,2.69318 0.89353,4.14045 0.89353,1.44727 2.65543,1.44727 1.6738,0 2.57991,-1.4221 0.90612,-1.4221 0.91871,-4.09011 z m 18.67148,6.12887 h -6.05337 l -1.05713,3.42311 h -4.71936 l 6.72037,-18.3237 h 4.15303 l 6.77071,18.3237 h -4.74453 z m -4.99623,-3.41052 h 3.93909 l -1.97584,-6.35541 z m 23.35313,1.96325 q 0,-0.96904 -0.69218,-1.51019 -0.67958,-0.54116 -2.40372,-1.12007 -1.72414,-0.5789 -2.81903,-1.12006 -3.56155,-1.74931 -3.56155,-4.80745 0,-1.52278 0.88095,-2.6806 0.89353,-1.1704 2.51699,-1.81223 1.62346,-0.65442 3.64964,-0.65442 1.97584,0 3.53637,0.70476 1.57312,0.70475 2.44149,2.01359 0.86836,1.29625 0.86836,2.97005 h -4.40474 q 0,-1.12006 -0.69217,-1.73672 -0.67959,-0.61667 -1.84999,-0.61667 -1.18299,0 -1.87516,0.52857 -0.67959,0.51599 -0.67959,1.32142 0,0.70476 0.7551,1.28367 0.7551,0.56632 2.65543,1.18299 1.90033,0.60407 3.12107,1.30883 2.97005,1.71156 2.97005,4.71936 0,2.40373 -1.81224,3.77549 -1.81223,1.37176 -4.97105,1.37176 -2.22754,0 -4.03978,-0.79285 -1.79965,-0.80544 -2.71835,-2.18978 -0.90612,-1.39694 -0.90612,-3.20917 h 4.42991 q 0,1.47244 0.7551,2.1772 0.76768,0.69217 2.47924,0.69217 1.09489,0 1.72413,-0.46564 0.64184,-0.47823 0.64184,-1.33401 z m 22.82454,-10.0428 h -5.49963 v 14.91318 h -4.41732 V 300.86005 H 429.006 v -3.41052 h 15.3159 z m 14.98412,7.14826 h -6.94689 v 4.36698 h 8.20539 v 3.39794 H 447.9418 v -18.3237 h 12.64789 v 3.41052 h -8.23056 v 3.86359 h 6.94689 z m 11.62394,1.29625 h -2.39115 v 6.46867 h -4.41732 v -18.3237 h 7.21118 q 3.25951,0 5.09691,1.44727 1.83741,1.44727 1.83741,4.09011 0,1.91292 -0.78027,3.17141 -0.76768,1.2585 -2.41631,2.03877 l 3.82583,7.38737 v 0.18877 h -4.73195 z m -2.39115,-3.41052 h 2.79386 q 1.2585,0 1.88775,-0.65442 0.64183,-0.667 0.64183,-1.84999 0,-1.18299 -0.64183,-1.84999 -0.64183,-0.67959 -1.88775,-0.67959 h -2.79386 z m 20.2572,-0.49082 3.37277,-7.95369 h 4.7697 l -5.90235,11.74177 v 6.58193 h -4.48024 v -6.58193 l -5.88976,-11.74177 h 4.74453 z m 28.86077,5.49963 q 0,-0.96904 -0.69217,-1.51019 -0.67959,-0.54116 -2.40373,-1.12007 -1.72414,-0.5789 -2.81903,-1.12006 -3.56154,-1.74931 -3.56154,-4.80745 0,-1.52278 0.88094,-2.6806 0.89354,-1.1704 2.517,-1.81223 1.62346,-0.65442 3.64963,-0.65442 1.97584,0 3.53638,0.70476 1.57312,0.70475 2.44148,2.01359 0.86836,1.29625 0.86836,2.97005 h -4.40473 q 0,-1.12006 -0.69218,-1.73672 -0.67958,-0.61667 -1.84999,-0.61667 -1.18298,0 -1.87515,0.52857 -0.67959,0.51599 -0.67959,1.32142 0,0.70476 0.7551,1.28367 0.75509,0.56632 2.65542,1.18299 1.90033,0.60407 3.12107,1.30883 2.97005,1.71156 2.97005,4.71936 0,2.40373 -1.81223,3.77549 -1.81224,1.37176 -4.97106,1.37176 -2.22754,0 -4.03977,-0.79285 -1.79965,-0.80544 -2.71836,-2.18978 -0.90611,-1.39694 -0.90611,-3.20917 h 4.4299 q 0,1.47244 0.7551,2.1772 0.76768,0.69217 2.47924,0.69217 1.09489,0 1.72414,-0.46564 0.64183,-0.47823 0.64183,-1.33401 z m 22.82454,-10.0428 h -5.49963 v 14.91318 h -4.41732 v -14.91318 h -5.39895 v -3.41052 h 15.3159 z m 2.80186,10.7979 q 1.00679,0 1.6738,0.60408 0.667,0.59149 0.667,1.52278 0,0.93129 -0.667,1.53536 -0.66701,0.5915 -1.6738,0.5915 -1.01938,0 -1.68639,-0.60408 -0.65442,-0.60408 -0.65442,-1.52278 0,-0.9187 0.65442,-1.52278 0.66701,-0.60408 1.68639,-0.60408 z m 19.7115,-2.10169 v 6.21697 h -4.41732 v -18.3237 h 7.31187 q 2.10168,0 3.71256,0.78027 1.62346,0.76768 2.50441,2.20236 0.89353,1.4221 0.89353,3.23434 0,2.6806 -1.9255,4.29147 -1.91291,1.59829 -5.26051,1.59829 z m 0,-3.41052 h 2.89455 q 1.28366,0 1.95066,-0.64184 0.67959,-0.64183 0.67959,-1.81223 0,-1.28367 -0.69217,-2.05135 -0.69217,-0.76768 -1.88774,-0.78027 h -2.94489 z m 25.47995,1.86257 h -6.94689 v 4.36698 h 8.20539 v 3.39794 h -12.62272 v -18.3237 h 12.64789 v 3.41052 h -8.23056 v 3.86359 h 6.94689 z m 19.45176,-7.14826 h -5.49963 v 14.91318 h -4.41732 v -14.91318 h -5.39895 v -3.41052 h 15.3159 z m 14.98413,7.14826 h -6.9469 v 4.36698 h 8.20539 v 3.39794 H 611.5463 v -18.3237 h 12.64788 v 3.41052 h -8.23056 v 3.86359 h 6.9469 z"
           id="path19" /></g><g
         id="text4"
         style="font-size:25.774px;line-height:1.25;font-family:'TeX Gyre Chorus';-inkscape-font-specification:'TeX Gyre Chorus';text-align:center;letter-spacing:1.75732px;word-spacing:0px;white-space:pre;stroke-width:0.631221"
         transform="matrix(0.89052115,0,0,0.89052115,-21.248574,39.367398)"
         aria-label="TIME CONTROL: 10+0 (BLITZ)&#10;ROUNDS: 5&#10;ENTRY: FREE&#10;"><path
           style="font-weight:900;font-family:Roboto;-inkscape-font-specification:'Roboto Heavy'"
           d="m 142.40279,268.59101 h -5.49962 v 14.91318 h -4.41732 v -14.91318 h -5.39895 v -3.41052 h 15.31589 z m 8.32667,14.91318 h -4.40473 v -18.3237 h 4.40473 z m 10.62972,-18.3237 4.09012,12.74856 4.07752,-12.74856 h 5.81425 v 18.3237 h -4.4299 v -4.27889 l 0.42789,-8.75913 -4.42991,13.03802 h -2.91971 l -4.44249,-13.05061 0.42789,8.77172 v 4.27889 h -4.41732 v -18.3237 z m 29.90988,10.55878 h -6.9469 v 4.36698 h 8.2054 v 3.39794 h -12.62272 v -18.3237 h 12.64789 v 3.41052 h -8.23057 v 3.86358 h 6.9469 z m 27.8162,1.56053 q -0.0881,1.91292 -1.03197,3.38536 -0.94387,1.45985 -2.65543,2.26529 -1.69897,0.80544 -3.88875,0.80544 -3.61188,0 -5.6884,-2.35339 -2.07652,-2.35339 -2.07652,-6.64486 v -0.90612 q 0,-2.69318 0.93129,-4.70677 0.94387,-2.02618 2.70576,-3.12107 1.7619,-1.10748 4.07753,-1.10748 3.33502,0 5.36119,1.7619 2.02618,1.74931 2.30305,4.83262 h -4.40473 q -0.0503,-1.6738 -0.8432,-2.40373 -0.79285,-0.72992 -2.41631,-0.72992 -1.64863,0 -2.41631,1.23332 -0.76768,1.23333 -0.80544,3.93909 v 1.29626 q 0,2.93229 0.72993,4.19079 0.74251,1.25849 2.54216,1.25849 1.52278,0 2.32822,-0.71734 0.80544,-0.71734 0.85578,-2.27788 z m 19.36368,-2.57991 q 0,2.68059 -0.99421,4.74453 -0.99421,2.06393 -2.83162,3.18399 -1.82482,1.10748 -4.16562,1.10748 -2.3408,0 -4.15304,-1.06972 -1.81223,-1.08231 -2.83161,-3.08332 -1.0068,-2.00101 -1.05714,-4.59351 v -1.03197 q 0,-2.69318 0.98163,-4.74453 0.99421,-2.06393 2.83161,-3.18399 1.84999,-1.12006 4.20338,-1.12006 2.32822,0 4.15304,1.10747 1.82482,1.10748 2.83161,3.15883 1.01938,2.03876 1.03197,4.6816 z m -4.49283,-0.76769 q 0,-2.73093 -0.9187,-4.14045 -0.90612,-1.4221 -2.60509,-1.4221 -3.32243,0 -3.51121,4.98365 l -0.0126,1.34659 q 0,2.69318 0.89353,4.14045 0.89353,1.44727 2.65543,1.44727 1.6738,0 2.57992,-1.4221 0.90611,-1.4221 0.9187,-4.09011 z m 23.83134,9.55199 h -4.39215 l -6.49384,-11.40198 v 11.40198 h -4.41732 v -18.3237 h 4.41732 l 6.48126,11.40197 v -11.40197 h 4.40473 z m 18.57083,-14.91318 h -5.49962 v 14.91318 h -4.41732 v -14.91318 h -5.39895 v -3.41052 h 15.31589 z m 10.42836,8.44451 h -2.39114 v 6.46867 h -4.41732 v -18.3237 h 7.21118 q 3.2595,0 5.09691,1.44727 1.8374,1.44727 1.8374,4.09011 0,1.91291 -0.78027,3.17141 -0.76768,1.25849 -2.41631,2.03876 l 3.82583,7.38737 v 0.18878 h -4.73195 z m -2.39114,-3.41053 h 2.79386 q 1.25849,0 1.88774,-0.65441 0.64184,-0.66701 0.64184,-1.84999 0,-1.18299 -0.64184,-1.84999 -0.64183,-0.67959 -1.88774,-0.67959 h -2.79386 z m 29.67076,1.0949 q 0,2.68059 -0.99421,4.74453 -0.99421,2.06393 -2.83161,3.18399 -1.82482,1.10748 -4.16563,1.10748 -2.3408,0 -4.15303,-1.06972 -1.81224,-1.08231 -2.83162,-3.08332 -1.0068,-2.00101 -1.05714,-4.59351 v -1.03197 q 0,-2.69318 0.98163,-4.74453 0.99421,-2.06393 2.83162,-3.18399 1.84999,-1.12006 4.20337,-1.12006 2.32822,0 4.15304,1.10747 1.82482,1.10748 2.83162,3.15883 1.01938,2.03876 1.03196,4.6816 z m -4.49283,-0.76769 q 0,-2.73093 -0.9187,-4.14045 -0.90612,-1.4221 -2.60509,-1.4221 -3.32243,0 -3.5112,4.98365 l -0.0126,1.34659 q 0,2.69318 0.89354,4.14045 0.89353,1.44727 2.65542,1.44727 1.6738,0 2.57992,-1.4221 0.90612,-1.4221 0.9187,-4.09011 z m 12.94534,6.15405 h 7.68941 v 3.39794 h -12.10673 v -18.3237 h 4.41732 z m 13.7508,-0.71734 q 1.0068,0 1.6738,0.60407 0.66701,0.5915 0.66701,1.52278 0,0.93129 -0.66701,1.53537 -0.667,0.59149 -1.6738,0.59149 -1.01938,0 -1.68638,-0.60407 -0.65442,-0.60408 -0.65442,-1.52279 0,-0.9187 0.65442,-1.52278 0.667,-0.60407 1.68638,-0.60407 z m 0,-10.0428 q 1.0068,0 1.6738,0.60408 0.66701,0.59149 0.66701,1.52278 0,0.93128 -0.66701,1.53536 -0.667,0.59149 -1.6738,0.59149 -1.01938,0 -1.68638,-0.60407 -0.65442,-0.60408 -0.65442,-1.52278 0,-0.91871 0.65442,-1.52278 0.667,-0.60408 1.68638,-0.60408 z m 24.36792,14.15808 h -4.25372 v -13.54142 l -4.17821,1.22074 v -3.22175 l 8.04179,-2.78127 h 0.39014 z m 20.00552,-7.48805 q 0,3.71256 -1.6738,5.72615 -1.66122,2.0136 -4.69419,2.0136 -3.05815,0 -4.73195,-2.02618 -1.6738,-2.02618 -1.6738,-5.71357 v -3.3476 q 0,-3.71257 1.66122,-5.72616 1.6738,-2.01359 4.71936,-2.01359 3.04556,0 4.71936,2.02618 1.6738,2.02617 1.6738,5.72615 z m -4.24114,-3.88876 q 0,-1.97583 -0.51598,-2.94488 -0.51598,-0.98162 -1.63604,-0.98162 -1.0949,0 -1.59829,0.90611 -0.49082,0.90612 -0.52857,2.74352 v 4.68161 q 0,2.05135 0.51598,3.00781 0.51598,0.94387 1.63605,0.94387 1.0823,0 1.59829,-0.9187 0.51598,-0.93129 0.52856,-2.90713 z m 15.9154,0.98163 h 4.29147 v 3.63705 h -4.29147 v 4.92072 H 388.353 v -4.92072 h -4.30405 v -3.63705 h 4.30405 v -4.78228 h 3.96427 z m 20.53408,2.90713 q 0,3.71256 -1.6738,5.72615 -1.66121,2.0136 -4.69419,2.0136 -3.05815,0 -4.73195,-2.02618 -1.6738,-2.02618 -1.6738,-5.71357 v -3.3476 q 0,-3.71257 1.66122,-5.72616 1.6738,-2.01359 4.71936,-2.01359 3.04556,0 4.71936,2.02618 1.6738,2.02617 1.6738,5.72615 z m -4.24113,-3.88876 q 0,-1.97583 -0.51599,-2.94488 -0.51598,-0.98162 -1.63604,-0.98162 -1.09489,0 -1.59829,0.90611 -0.49081,0.90612 -0.52857,2.74352 v 4.68161 q 0,2.05135 0.51598,3.00781 0.51599,0.94387 1.63605,0.94387 1.08231,0 1.59829,-0.9187 0.51598,-0.93129 0.52857,-2.90713 z m 16.7666,3.92651 q 0,-3.07073 0.81802,-5.71357 0.81803,-2.64284 2.25271,-4.48025 1.44727,-1.8374 3.20917,-2.56733 l 0.80544,2.0891 q -1.7619,1.29626 -2.73094,4.05236 -0.95646,2.74352 -0.96904,6.4435 v 0.55374 q 0,3.78807 0.95645,6.56935 0.96905,2.78128 2.74353,4.07753 l -0.80544,2.0891 q -1.73673,-0.70476 -3.20917,-2.57992 -1.45985,-1.86257 -2.25271,-4.45507 -0.79285,-2.5925 -0.81802,-5.51221 z m 10.73041,7.4503 v -18.3237 h 6.58194 q 3.53637,0 5.37378,1.29625 1.84999,1.29625 1.84999,3.7629 0,1.4221 -0.65442,2.4289 -0.65442,1.00679 -1.9255,1.48502 1.43469,0.37755 2.20237,1.40952 0.76768,1.03197 0.76768,2.51699 0,2.69318 -1.71155,4.05236 -1.69897,1.34659 -5.04657,1.37176 z m 4.41733,-7.79009 v 4.39215 h 2.89454 q 1.19557,0 1.8374,-0.54115 0.64183,-0.55374 0.64183,-1.54795 0,-2.29047 -2.27787,-2.30305 z m 0,-2.89454 h 2.30304 q 1.44727,-0.0126 2.06394,-0.52857 0.61666,-0.51598 0.61666,-1.52278 0,-1.15782 -0.667,-1.66122 -0.66701,-0.51598 -2.15203,-0.51598 h -2.16461 z m 18.38205,7.28669 h 7.68941 v 3.39794 h -12.10674 v -18.3237 h 4.41733 z m 16.01607,3.39794 h -4.40473 v -18.3237 h 4.40473 z m 18.8477,-14.91318 h -5.49963 v 14.91318 h -4.41732 v -14.91318 h -5.39895 v -3.41052 h 15.3159 z m 8.57835,11.51524 h 8.75913 v 3.39794 h -14.27134 v -2.32822 l 8.73396,-12.58496 h -8.7843 v -3.41052 h 14.23359 v 2.26529 z m 19.01132,-3.69998 q 0,2.95747 -0.86837,5.61289 -0.86836,2.65543 -2.40372,4.55576 -1.52278,1.91291 -3.29726,2.5925 l -0.80544,-2.0891 q 1.74931,-1.30884 2.70577,-4.02719 0.95645,-2.71835 0.99421,-6.25473 v -0.76768 q 0,-3.78807 -0.96904,-6.56935 -0.95646,-2.78127 -2.73094,-4.07753 l 0.80544,-2.0891 q 1.76189,0.69217 3.27209,2.56733 1.52278,1.86258 2.39114,4.49283 0.88095,2.61768 0.90612,5.49963 z"
           id="path15" /><path
           style="font-weight:900;font-family:Roboto;-inkscape-font-specification:'Roboto Heavy'"
           d="m 259.90115,309.30456 h -2.39114 v 6.46867 h -4.41732 v -18.3237 h 7.21118 q 3.25951,0 5.09691,1.44727 1.83741,1.44727 1.83741,4.09011 0,1.91292 -0.78027,3.17141 -0.76768,1.2585 -2.41631,2.03877 l 3.82583,7.38737 v 0.18877 h -4.73195 z m -2.39114,-3.41052 h 2.79386 q 1.2585,0 1.88775,-0.65442 0.64183,-0.667 0.64183,-1.84999 0,-1.18299 -0.64183,-1.84999 -0.64184,-0.67959 -1.88775,-0.67959 h -2.79386 z m 29.67077,1.09489 q 0,2.6806 -0.99422,4.74453 -0.99421,2.06393 -2.83161,3.18399 -1.82482,1.10748 -4.16562,1.10748 -2.34081,0 -4.15304,-1.06972 -1.81224,-1.08231 -2.83162,-3.08332 -1.00679,-2.001 -1.05713,-4.59351 v -1.03196 q 0,-2.69319 0.98162,-4.74453 0.99421,-2.06394 2.83162,-3.184 1.84999,-1.12006 4.20338,-1.12006 2.32821,0 4.15303,1.10748 1.82482,1.10747 2.83162,3.15882 1.01938,2.03876 1.03197,4.68161 z m -4.49284,-0.76768 q 0,-2.73094 -0.9187,-4.14046 -0.90611,-1.4221 -2.60508,-1.4221 -3.32243,0 -3.51121,4.98365 l -0.0126,1.34659 q 0,2.69318 0.89353,4.14045 0.89353,1.44727 2.65543,1.44727 1.6738,0 2.57991,-1.4221 0.90612,-1.4221 0.9187,-4.09011 z M 305.588,297.44953 V 309.443 q 0,2.03876 -0.86836,3.53637 -0.86836,1.48503 -2.49182,2.26529 -1.62346,0.78027 -3.83842,0.78027 -3.3476,0 -5.2731,-1.73672 -1.9255,-1.73673 -1.96325,-4.75712 v -12.08156 h 4.44249 v 12.16966 q 0.0755,3.0078 2.79386,3.0078 1.37176,0 2.07652,-0.7551 0.70476,-0.75509 0.70476,-2.45406 v -11.9683 z m 19.81674,18.3237 h -4.39215 l -6.49384,-11.40197 v 11.40197 h -4.41732 v -18.3237 h 4.41732 L 321,308.8515 v -11.40197 h 4.40474 z m 4.55118,0 v -18.3237 h 5.90235 q 2.42889,0 4.36698,1.10748 1.93808,1.09489 3.02039,3.10848 1.09489,2.00101 1.10747,4.49283 v 0.84319 q 0,2.517 -1.06972,4.518 -1.05713,1.98843 -2.99522,3.12108 -1.9255,1.12006 -4.30405,1.13264 z m 4.41732,-14.91318 v 11.51524 h 1.53537 q 1.90032,0 2.91971,-1.34659 1.01938,-1.35917 1.01938,-4.02719 v -0.79285 q 0,-2.65543 -1.01938,-4.00202 -1.01939,-1.34659 -2.97005,-1.34659 z m 23.45379,10.0428 q 0,-0.96904 -0.69217,-1.51019 -0.67959,-0.54116 -2.40373,-1.12007 -1.72414,-0.5789 -2.81903,-1.12006 -3.56154,-1.74931 -3.56154,-4.80745 0,-1.52278 0.88094,-2.6806 0.89354,-1.1704 2.517,-1.81223 1.62346,-0.65442 3.64963,-0.65442 1.97584,0 3.53638,0.70476 1.57312,0.70475 2.44148,2.01359 0.86836,1.29625 0.86836,2.97005 h -4.40473 q 0,-1.12006 -0.69218,-1.73672 -0.67958,-0.61667 -1.84999,-0.61667 -1.18298,0 -1.87515,0.52857 -0.67959,0.51599 -0.67959,1.32142 0,0.70476 0.7551,1.28367 0.75509,0.56632 2.65542,1.18299 1.90033,0.60407 3.12107,1.30883 2.97005,1.71156 2.97005,4.71936 0,2.40373 -1.81223,3.77549 -1.81224,1.37176 -4.97106,1.37176 -2.22754,0 -4.03977,-0.79285 -1.79965,-0.80544 -2.71835,-2.18978 -0.90612,-1.39694 -0.90612,-3.20917 h 4.4299 q 0,1.47244 0.7551,2.1772 0.76768,0.69217 2.47924,0.69217 1.09489,0 1.72414,-0.46564 0.64183,-0.47823 0.64183,-1.33401 z m 10.88142,0.7551 q 1.0068,0 1.6738,0.60408 0.667,0.59149 0.667,1.52278 0,0.93129 -0.667,1.53536 -0.667,0.5915 -1.6738,0.5915 -1.01938,0 -1.68638,-0.60408 -0.65442,-0.60408 -0.65442,-1.52278 0,-0.9187 0.65442,-1.52278 0.667,-0.60408 1.68638,-0.60408 z m 0,-10.0428 q 1.0068,0 1.6738,0.60408 0.667,0.59149 0.667,1.52278 0,0.93129 -0.667,1.53536 -0.667,0.5915 -1.6738,0.5915 -1.01938,0 -1.68638,-0.60408 -0.65442,-0.60408 -0.65442,-1.52278 0,-0.9187 0.65442,-1.52278 0.667,-0.60408 1.68638,-0.60408 z m 15.21866,5.19759 1.12006,-9.36321 h 10.7098 v 3.29726 h -7.26152 l -0.41531,3.63705 q 0.45306,-0.26428 1.18299,-0.46564 0.74251,-0.20136 1.44727,-0.20136 2.73094,0 4.19079,1.62346 1.47244,1.61087 1.47244,4.53059 0,1.76189 -0.79285,3.19658 -0.78027,1.4221 -2.20237,2.18978 -1.4221,0.76768 -3.36018,0.76768 -1.72414,0 -3.23434,-0.70476 -1.51019,-0.71734 -2.36597,-1.95067 -0.85578,-1.24591 -0.84319,-2.80644 h 4.25371 q 0.0629,1.00679 0.64184,1.59829 0.57891,0.59149 1.52278,0.59149 2.13944,0 2.13944,-3.17141 0,-2.93229 -2.61767,-2.93229 -1.48503,0 -2.21495,0.95645 z"
           id="path16" /><path
           style="font-weight:900;font-family:Roboto;-inkscape-font-specification:'Roboto Heavy'"
           d="m 251.20323,340.27735 h -6.9469 v 4.36699 h 8.2054 v 3.39793 h -12.62272 v -18.3237 h 12.64788 v 3.41053 h -8.23056 v 3.86358 h 6.9469 z m 20.11878,7.76492 h -4.39215 l -6.49384,-11.40197 v 11.40197 h -4.41733 v -18.3237 h 4.41733 l 6.48125,11.40198 v -11.40198 h 4.40474 z m 18.57083,-14.91317 h -5.49963 v 14.91317 h -4.41732 V 333.1291 h -5.39895 v -3.41053 h 15.3159 z m 10.42835,8.4445 h -2.39114 v 6.46867 h -4.41732 v -18.3237 h 7.21118 q 3.25951,0 5.09691,1.44727 1.83741,1.44727 1.83741,4.09011 0,1.91292 -0.78027,3.17141 -0.76768,1.2585 -2.41631,2.03877 l 3.82582,7.38737 v 0.18877 h -4.73194 z m -2.39114,-3.41052 h 2.79386 q 1.2585,0 1.88775,-0.65442 0.64183,-0.667 0.64183,-1.84999 0,-1.18298 -0.64183,-1.84999 -0.64184,-0.67958 -1.88775,-0.67958 h -2.79386 z m 20.25722,-0.49081 3.37277,-7.9537 h 4.7697 l -5.90235,11.74177 v 6.58193 h -4.48025 v -6.58193 l -5.88976,-11.74177 h 4.74453 z m 13.67528,6.25472 q 1.00679,0 1.6738,0.60408 0.667,0.59149 0.667,1.52278 0,0.93129 -0.667,1.53537 -0.66701,0.59149 -1.6738,0.59149 -1.01939,0 -1.68639,-0.60408 -0.65442,-0.60408 -0.65442,-1.52278 0,-0.9187 0.65442,-1.52278 0.667,-0.60408 1.68639,-0.60408 z m 0,-10.0428 q 1.00679,0 1.6738,0.60408 0.667,0.59149 0.667,1.52278 0,0.93129 -0.667,1.53537 -0.66701,0.59149 -1.6738,0.59149 -1.01939,0 -1.68639,-0.60408 -0.65442,-0.60408 -0.65442,-1.52278 0,-0.9187 0.65442,-1.52278 0.667,-0.60408 1.68639,-0.60408 z m 26.77164,6.85881 h -7.12309 v 7.29927 h -4.41732 v -18.3237 h 12.25775 v 3.41053 h -7.84043 v 4.21596 h 7.12309 z m 11.12053,0.8306 h -2.39114 v 6.46867 h -4.41732 v -18.3237 h 7.21118 q 3.2595,0 5.09691,1.44727 1.8374,1.44727 1.8374,4.09011 0,1.91292 -0.78027,3.17141 -0.76768,1.2585 -2.41631,2.03877 l 3.82583,7.38737 v 0.18877 h -4.73195 z m -2.39114,-3.41052 h 2.79386 q 1.25849,0 1.88774,-0.65442 0.64184,-0.667 0.64184,-1.84999 0,-1.18298 -0.64184,-1.84999 -0.64183,-0.67958 -1.88774,-0.67958 h -2.79386 z m 25.51772,2.11427 h -6.9469 v 4.36699 h 8.2054 v 3.39793 h -12.62272 v -18.3237 h 12.64789 v 3.41053 h -8.23057 v 3.86358 h 6.9469 z m 16.17969,0 h -6.9469 v 4.36699 h 8.20539 v 3.39793 h -12.62271 v -18.3237 h 12.64788 v 3.41053 h -8.23056 v 3.86358 h 6.9469 z"
           id="path17" /></g><text
         xml:space="preserve"
         transform="matrix(0.74974377,0,0,0.74974377,-28.742017,-37.960255)"
         id="text5"
         style="font-size:21.3333px;line-height:1.25;font-family:'TeX Gyre Chorus';-inkscape-font-specification:'TeX Gyre Chorus';letter-spacing:0px;word-spacing:0px;white-space:pre;shape-inside:url(#rect5);display:inline" /><g
         id="text6"
         style="font-size:21.3333px;line-height:1.25;font-family:'TeX Gyre Chorus';-inkscape-font-specification:'TeX Gyre Chorus';letter-spacing:0px;word-spacing:0px;white-space:pre;stroke-width:0.527806"
         transform="matrix(1.065005,0,0,1.065005,-147.6856,-197.33369)"
         aria-label="1ST PLACE PRIZE&#10;$10 PUBLIX GIFT CARD"><path
           style="font-weight:900;font-size:29.3333px;font-family:Roboto;-inkscape-font-specification:'Roboto Heavy';text-align:center;letter-spacing:2px;baseline-shift:baseline;vector-effect:none;stop-color:#000000"
           d="m 269.15019,563.51039 h -4.84114 v -15.41144 l -4.7552,1.38932 v -3.66666 l 9.15233,-3.16537 h 0.44401 z m 19.34503,-5.54297 q 0,-1.10286 -0.78776,-1.71874 -0.77344,-0.61589 -2.73567,-1.27474 -1.96224,-0.65885 -3.20833,-1.27474 -4.05338,-1.99088 -4.05338,-5.47135 0,-1.73307 1.0026,-3.05078 1.01693,-1.33202 2.86458,-2.06249 1.84765,-0.74479 4.15364,-0.74479 2.2487,0 4.02474,0.80208 1.79036,0.80208 2.77864,2.29166 0.98828,1.47526 0.98828,3.38021 h -5.01302 q 0,-1.27474 -0.78776,-1.97656 -0.77343,-0.70182 -2.10546,-0.70182 -1.34635,0 -2.13411,0.60156 -0.77344,0.58724 -0.77344,1.5039 0,0.80208 0.85937,1.46094 0.85938,0.64453 3.02214,1.34635 2.16275,0.6875 3.55207,1.48958 3.38021,1.94792 3.38021,5.37109 0,2.73567 -2.0625,4.29687 -2.0625,1.5612 -5.65754,1.5612 -2.53516,0 -4.59766,-0.90235 -2.04817,-0.91666 -3.09374,-2.49218 -1.03125,-1.58984 -1.03125,-3.65234 h 5.04166 q 0,1.67578 0.85937,2.47786 0.8737,0.78776 2.82162,0.78776 1.24609,0 1.96223,-0.52995 0.73047,-0.54427 0.73047,-1.51823 z m 25.97653,-11.42967 h -6.2591 v 16.97264 h -5.02734 v -16.97264 h -6.14453 v -3.88151 h 17.43097 z m 17.59244,9.89712 v 7.07552 h -5.02734 v -20.85415 h 8.32161 q 2.39192,0 4.22525,0.88802 1.84766,0.8737 2.85026,2.50651 1.01692,1.61849 1.01692,3.68099 0,3.05077 -2.1914,4.88411 -2.17708,1.819 -5.98697,1.819 z m 0,-3.8815 h 3.29427 q 1.46093,0 2.22005,-0.73047 0.77343,-0.73047 0.77343,-2.0625 0,-1.46093 -0.78776,-2.33463 -0.78776,-0.8737 -2.14843,-0.88802 h -3.35156 z m 21.09242,7.08983 h 8.75129 v 3.86719 h -13.77863 v -20.85415 h 5.02734 z m 24.98826,-0.0286 h -6.88932 l -1.20312,3.89583 h -5.37109 l 7.64843,-20.85415 h 4.72656 l 7.70572,20.85415 h -5.39974 z m -5.68619,-3.88151 h 4.48306 l -2.24869,-7.23306 z m 32.3932,0.71615 q -0.10026,2.17708 -1.17448,3.85286 -1.07422,1.66145 -3.02213,2.57812 -1.93359,0.91667 -4.42578,0.91667 -4.11067,0 -6.47395,-2.67839 -2.36328,-2.67838 -2.36328,-7.56249 v -1.03125 q 0,-3.0651 1.0599,-5.35676 1.07421,-2.30599 3.07942,-3.55208 2.00521,-1.26042 4.64062,-1.26042 3.79557,0 6.10156,2.00521 2.30598,1.99088 2.62109,5.49999 h -5.01302 q -0.0573,-1.90494 -0.95963,-2.73567 -0.90235,-0.83073 -2.75,-0.83073 -1.8763,0 -2.75,1.40365 -0.87369,1.40364 -0.91666,4.48306 v 1.47526 q 0,3.33724 0.83073,4.76953 0.84505,1.43229 2.89322,1.43229 1.73307,0 2.64974,-0.81641 0.91666,-0.8164 0.97396,-2.59244 z m 17.31117,-1.77604 h -7.90624 v 4.97004 h 9.33853 v 3.86719 h -14.36587 v -20.85415 h 14.39452 v 3.88151 h -9.36718 v 4.39713 h 7.90624 z m 19.81248,1.76171 v 7.07552 h -5.02734 v -20.85415 h 8.3216 q 2.39193,0 4.22526,0.88802 1.84765,0.8737 2.85026,2.50651 1.01692,1.61849 1.01692,3.68099 0,3.05077 -2.1914,4.88411 -2.17708,1.819 -5.98697,1.819 z m 0,-3.8815 h 3.29426 q 1.46094,0 2.22005,-0.73047 0.77344,-0.73047 0.77344,-2.0625 0,-1.46093 -0.78776,-2.33463 -0.78776,-0.8737 -2.14843,-0.88802 h -3.35156 z m 23.81379,3.59505 h -2.72135 v 7.36197 h -5.02734 v -20.85415 h 8.20702 q 3.70963,0 5.80077,1.64714 2.09115,1.64713 2.09115,4.65494 0,2.17708 -0.88802,3.60937 -0.8737,1.43229 -2.75,2.32031 l 4.35416,8.40754 v 0.21485 h -5.38541 z m -2.72135,-3.88151 h 3.17968 q 1.43229,0 2.14843,-0.74479 0.73047,-0.75911 0.73047,-2.10547 0,-1.34635 -0.73047,-2.10546 -0.73046,-0.77344 -2.14843,-0.77344 h -3.17968 z m 21.46481,11.24348 h -5.01301 v -20.85415 h 5.01301 z m 11.13801,-3.86719 h 9.96874 v 3.86719 h -16.24217 v -2.64974 l 9.94009,-14.3229 h -9.99738 v -3.88151 h 16.1992 v 2.57813 z m 27.17967,-4.97004 h -7.90624 v 4.97004 h 9.33853 v 3.86719 h -14.36587 v -20.85415 h 14.39451 v 3.88151 h -9.36717 v 4.39713 h 7.90624 z"
           id="path13" /><path
           style="font-weight:900;font-size:29.3333px;font-family:Roboto;-inkscape-font-specification:'Roboto Heavy';text-align:center;letter-spacing:2px;baseline-shift:baseline;vector-effect:none;stop-color:#000000"
           d="m 225.73617,594.64837 q 0,-1.13151 -0.55859,-1.77604 -0.5586,-0.64453 -1.96224,-1.21744 -1.40364,-0.57292 -2.59244,-1.16016 -1.18881,-0.58724 -2.04818,-1.36067 -0.85937,-0.77344 -1.31771,-1.79037 -0.45833,-1.01692 -0.45833,-2.46353 0,-2.42057 1.63281,-3.98177 1.63281,-1.57552 4.35416,-1.83333 v -3.02213 h 2.27734 v 3.07942 q 2.6211,0.38672 4.11068,2.16276 1.5039,1.76171 1.5039,4.48307 h -4.84114 q 0,-1.48959 -0.57292,-2.29167 -0.57291,-0.80208 -1.63281,-0.80208 -0.94531,0 -1.47525,0.60156 -0.51563,0.58724 -0.51563,1.63281 0,1.0599 0.60156,1.6901 0.60156,0.61589 1.93359,1.1888 1.33203,0.5586 2.50651,1.17448 1.1888,0.60156 2.04818,1.375 0.85937,0.77344 1.34635,1.80469 0.48698,1.03124 0.48698,2.47786 0,2.44921 -1.5612,3.99609 -1.54687,1.54687 -4.22525,1.80468 v 2.87891 h -2.27734 v -2.89323 q -3.1224,-0.32943 -4.79818,-2.13411 -1.66145,-1.81901 -1.66145,-4.78385 h 4.82681 q 0,1.63281 0.71615,2.49218 0.73047,0.84505 2.0625,0.84505 0.97395,0 1.53255,-0.57291 0.55859,-0.58724 0.55859,-1.60417 z m 20.0755,5.52864 h -4.84114 v -15.41144 l -4.7552,1.38932 v -3.66666 l 9.15233,-3.16536 h 0.44401 z m 22.76821,-8.52212 q 0,4.22525 -1.90495,6.51692 -1.89062,2.29166 -5.34244,2.29166 -3.48047,0 -5.38541,-2.30599 -1.90495,-2.30598 -1.90495,-6.50259 V 587.845 q 0,-4.22526 1.89062,-6.51692 1.90495,-2.29167 5.37109,-2.29167 3.46614,0 5.37109,2.30599 1.90495,2.30599 1.90495,6.51692 z m -4.82682,-4.42578 q 0,-2.24869 -0.58724,-3.35156 -0.58724,-1.11718 -1.86198,-1.11718 -1.24609,0 -1.81901,1.03125 -0.55859,1.03124 -0.60156,3.12239 v 5.32812 q 0,2.33463 0.58724,3.42317 0.58724,1.07422 1.86198,1.07422 1.23177,0 1.81901,-1.04557 0.58724,-1.0599 0.60156,-3.30859 z m 23.96612,5.87239 v 7.07551 h -5.02734 v -20.85414 h 8.32161 q 2.39192,0 4.22525,0.88802 1.84766,0.8737 2.85026,2.50651 1.01693,1.61849 1.01693,3.68098 0,3.05078 -2.19141,4.88411 -2.17708,1.81901 -5.98697,1.81901 z m 0,-3.88151 h 3.29427 q 1.46093,0 2.22005,-0.73046 0.77343,-0.73047 0.77343,-2.0625 0,-1.46094 -0.78776,-2.33463 -0.78776,-0.8737 -2.14843,-0.88802 h -3.35156 z m 32.42184,-9.89712 v 13.64972 q 0,2.32031 -0.98828,4.02474 -0.98828,1.6901 -2.83593,2.57812 -1.84765,0.88802 -4.36848,0.88802 -3.8099,0 -6.0013,-1.97656 -2.1914,-1.97656 -2.23437,-5.41406 v -13.74998 h 5.05598 v 13.85024 q 0.0859,3.42318 3.17969,3.42318 1.56119,0 2.36327,-0.85938 0.80209,-0.85937 0.80209,-2.79296 v -13.62108 z m 5.13671,20.85414 v -20.85414 h 7.49088 q 4.02474,0 6.11588,1.47526 2.10547,1.47526 2.10547,4.28255 0,1.61848 -0.7448,2.76432 -0.74479,1.14583 -2.1914,1.6901 1.63281,0.42969 2.50651,1.60416 0.87369,1.17448 0.87369,2.86458 0,3.0651 -1.94791,4.61198 -1.93359,1.53255 -5.74348,1.56119 z m 5.02734,-8.86587 v 4.99869 h 3.29427 q 1.36067,0 2.09114,-0.61588 0.73047,-0.63021 0.73047,-1.76172 0,-2.60677 -2.59245,-2.62109 z m 0,-3.29427 h 2.62109 q 1.64714,-0.0143 2.34896,-0.60156 0.70182,-0.58724 0.70182,-1.73307 0,-1.31771 -0.75911,-1.89062 -0.75912,-0.58724 -2.44922,-0.58724 h -2.46354 z m 20.92056,8.29296 h 8.75129 v 3.86718 h -13.77863 v -20.85414 h 5.02734 z m 18.22785,3.86718 h -5.01302 v -20.85414 h 5.01302 z m 13.5156,-13.92186 3.40885,-6.93228 h 5.74348 l -5.82942,10.34113 5.98697,10.51301 h -5.80077 l -3.50911,-7.06119 -3.50911,7.06119 h -5.78645 l 5.97264,-10.51301 -5.81509,-10.34113 h 5.72916 z m 39.32028,11.34374 q -1.16016,1.28906 -3.39453,2.07682 -2.23437,0.78776 -4.89843,0.78776 -4.09635,0 -6.54557,-2.50651 -2.44921,-2.5065 -2.62109,-6.97525 l -0.0143,-1.80468 q 0,-3.07943 1.08854,-5.37109 1.08854,-2.30599 3.10807,-3.53776 2.03385,-1.24609 4.69791,-1.24609 3.89583,0 6.04427,1.79036 2.16275,1.77604 2.52083,5.3138 h -4.84114 q -0.25782,-1.7474 -1.11719,-2.49219 -0.85937,-0.74479 -2.43489,-0.74479 -1.89063,0 -2.92188,1.60417 -1.03124,1.60416 -1.04557,4.58333 v 1.26041 q 0,3.12239 1.0599,4.69791 1.07422,1.5612 3.36588,1.5612 1.96224,0 2.92187,-0.8737 v -3.23697 h -3.49479 v -3.45182 h 8.52213 z m 10.27863,2.57812 h -5.01301 v -20.85414 h 5.01301 z m 18.62888,-8.30728 h -8.10676 v 8.30728 h -5.02733 v -20.85414 h 13.9505 v 3.88151 h -8.92317 v 4.79817 h 8.10676 z m 21.56509,-8.66535 h -6.25911 v 16.97263 h -5.02734 v -16.97263 h -6.14452 v -3.88151 h 17.43097 z m 29.43746,9.91144 q -0.10026,2.17708 -1.17448,3.85286 -1.07422,1.66146 -3.02213,2.57813 -1.93359,0.91666 -4.42578,0.91666 -4.11067,0 -6.47395,-2.67838 -2.36328,-2.67838 -2.36328,-7.56249 v -1.03125 q 0,-3.0651 1.0599,-5.35677 1.07422,-2.30598 3.07942,-3.55208 2.00521,-1.26041 4.64062,-1.26041 3.79557,0 6.10156,2.00521 2.30598,1.99088 2.62109,5.49999 h -5.01302 q -0.0573,-1.90495 -0.95963,-2.73567 -0.90234,-0.83073 -2.75,-0.83073 -1.8763,0 -2.75,1.40364 -0.87369,1.40365 -0.91666,4.48307 v 1.47526 q 0,3.33723 0.83073,4.76952 0.84505,1.43229 2.89322,1.43229 1.73307,0 2.64974,-0.8164 0.91666,-0.81641 0.97396,-2.59245 z m 16.22266,3.16536 h -6.88931 l -1.20313,3.89583 h -5.37109 l 7.64843,-20.85414 h 4.72656 l 7.70572,20.85414 h -5.39973 z m -5.68619,-3.8815 h 4.48307 l -2.2487,-7.23307 z m 23.57028,0.41536 h -2.72135 v 7.36197 h -5.02734 v -20.85414 h 8.20702 q 3.70963,0 5.80078,1.64713 2.09114,1.64714 2.09114,4.65495 0,2.17708 -0.88802,3.60937 -0.8737,1.43229 -2.75,2.32031 l 4.35417,8.40754 v 0.21484 h -5.38542 z m -2.72135,-3.8815 h 3.17968 q 1.43229,0 2.14844,-0.74479 0.73047,-0.75912 0.73047,-2.10547 0,-1.34635 -0.73047,-2.10547 -0.73047,-0.77343 -2.14844,-0.77343 h -3.17968 z m 16.10804,11.24347 v -20.85414 h 6.71744 q 2.76432,0 4.97004,1.26042 2.20573,1.24609 3.4375,3.53775 1.24609,2.27734 1.26041,5.11328 v 0.95963 q 0,2.86458 -1.21744,5.14192 -1.20313,2.26302 -3.40885,3.55208 -2.19141,1.27474 -4.89843,1.28906 z m 5.02733,-16.97263 v 13.10545 h 1.7474 q 2.16276,0 3.32291,-1.53255 1.16016,-1.54687 1.16016,-4.58333 v -0.90234 q 0,-3.02213 -1.16016,-4.55468 -1.16015,-1.53255 -3.3802,-1.53255 z"
           id="path14" /></g><text
         xml:space="preserve"
         transform="matrix(1.1496279,0,0,1.1496279,168.23026,-470.07644)"
         id="text13"
         style="font-size:14.3081px;line-height:1.25;font-family:'TeX Gyre Chorus';-inkscape-font-specification:'TeX Gyre Chorus';text-align:center;letter-spacing:1.30432px;word-spacing:0px;white-space:pre;shape-inside:url(#rect13);display:inline;stroke-width:0.488954"
         x="-130.16634"
         y="0" /><g
         id="g862"
         transform="matrix(0.53868342,0,0,0.50501554,1.768214,-102.73929)">
	<path
   d="m 85.4,325.5 c -1.1,0.7 -1.1,1.9 -1.4,2.9 -1.3,3.9 -2.4,7.9 -3.6,11.8 -0.4,1.4 -0.9,2.7 -1.5,4 -1.4,2.7 -3.6,4.3 -6.7,4.6 -1.1,0.1 -2.3,0.2 -3.4,0.2 -13.4,0 -26.8,0 -40.2,0 -1.3,0 -2.6,-0.1 -3.8,-0.3 -1.6,-0.2 -3,-1 -4.1,-2 -1,-0.9 -1.6,-1.9 -1.6,-3.4 0,-1.4 0.1,-2.9 0,-4.3 -0.2,-2.9 1.5,-4.5 3.8,-5.6 1.7,-0.8 3.6,-0.9 5.4,-0.9 7,0 14,0 20.9,0 4.4,0 8.8,0 13.2,0 4,0 3.3,-0.4 4.1,-3 3.3,-10.6 6.5,-21.2 9.8,-31.8 1.5,-4.9 3,-9.8 4.5,-14.7 0.4,-1.2 0.8,-2.5 1.3,-3.6 1.6,-3.4 4.9,-5.3 8.3,-4.9 3.7,0.4 6.6,3 7.2,6.8 0.7,4.6 1.1,9.3 1.7,14 0.6,4.8 1.1,9.6 1.7,14.4 0.1,0.5 0.2,1.1 0.5,2.2 0.9,-2.4 0.9,-4.4 1.1,-6.3 1.3,-12.5 2.5,-24.9 3.8,-37.4 1,-9.8 2,-19.5 3,-29.3 1,-9.8 1.9,-19.6 2.9,-29.3 1,-9.8 2,-19.5 3,-29.3 0.2,-1.6 0.2,-3.1 0.4,-4.7 0.2,-1.4 0.3,-2.8 0.8,-4.2 1,-3.3 3.9,-5.4 7.3,-5.6 3.4,-0.1 6.5,1.8 7.8,5 0.5,1.2 0.8,2.5 0.9,3.7 1.2,12.2 2.4,24.4 3.6,36.6 1.3,12.6 2.6,25.2 3.9,37.8 1,9.8 1.9,19.6 2.9,29.3 1,9.9 2,19.8 3,29.7 1,9.6 1.9,19.3 2.9,28.9 1,10.1 2,20.1 3.1,30.2 1,9.5 1.9,19 2.9,28.5 1,10.3 2.1,20.7 3.1,31 0.4,4 0.8,7.9 1.2,11.9 0.1,0.8 0.2,1.7 0.3,2.5 0,0.2 0.3,0.5 0.5,0.6 0.6,0.2 0.7,-0.3 0.8,-0.7 0.4,-3.1 0.7,-6.2 1,-9.3 1.4,-12.9 2.7,-25.8 4.1,-38.7 1.3,-12 2.5,-24.1 3.7,-36.1 0.6,-5.5 1.1,-11 1.8,-16.6 0.1,-1.1 0.4,-2.3 0.8,-3.3 1.4,-3.1 3.7,-5 7.2,-5.3 1.4,-0.1 2.8,-0.1 4.3,-0.1 13.7,0 27.3,0 41,0 1.7,0 3.3,-0.1 5,-0.8 2.1,-0.8 3.2,-1.8 2.9,-4.3 -0.2,-2.3 0.7,-4.5 2,-6.4 1,-1.6 1.9,-3.2 3,-4.7 5.2,-6.9 9,-14.4 11.7,-22.7 1.6,-5 3.2,-10 3.4,-15.4 0.1,-2.6 0.6,-5.1 0.9,-7.6 0.5,-3.8 0.6,-7.7 0.2,-11.5 -0.5,-5.7 -0.4,-11.4 -1.3,-17 -0.4,-2.4 -0.8,-4.8 -1.2,-7.2 -0.3,-1.8 -1.1,-3.2 -2.8,-4 -1,-0.5 -2,-1.1 -2.9,-1.8 -4.4,-3.5 -2.8,-8.6 0.6,-10.8 1.3,-0.9 2.8,-1.3 4.4,-1.7 2.1,-0.6 2.1,-0.6 2.3,-2.9 0.1,-0.9 0,-1.7 0.1,-2.6 0.3,-2.4 -0.5,-4.4 -2.2,-6.2 -1.9,-2 -3.4,-4.2 -4.5,-6.7 -3.3,-6.8 -0.1,-12.9 4.5,-15.6 0.4,-0.2 0.7,-0.4 1.1,-0.6 0.8,-0.5 1.2,-1.1 1,-2.1 -0.7,-2.8 -0.4,-5.7 -0.3,-8.5 0.1,-4.3 2.2,-6.5 6.4,-7.1 0.7,-0.1 1.4,-0.1 2.1,-0.1 0.9,-0.1 1.6,-0.6 1.9,-1.5 0.3,-0.8 0.4,-1.7 0.7,-2.4 1.5,-3.6 4.8,-5.7 8.8,-5.6 4,0.1 6.9,2 8.1,5.8 0.8,2.5 1.9,3.6 4.6,4 4.6,0.6 6.2,2.8 6.3,7.6 0,1.1 0,2.3 0,3.4 -0.1,1.8 -0.7,3.8 -0.2,5.5 0.5,1.8 2.9,2 4.3,3.2 1.3,1.2 2.3,2.5 2.9,4.1 1.5,4.5 1.2,8.7 -1.4,12.7 -1.3,1.9 -2.5,3.9 -4.1,5.5 -2.7,2.8 -2.7,6.1 -2.2,9.6 0.1,0.8 0.7,1.3 1.4,1.5 1,0.3 2,0.4 2.9,0.6 5.5,1.5 7.3,8 3.3,12.2 -1,1 -2.2,1.8 -3.3,2.6 -1.6,1.1 -2.5,2.6 -2.7,4.6 -0.1,0.8 -0.3,1.7 -0.4,2.5 -0.9,11.7 -1.5,23.3 -0.4,35 0.7,7.4 1.9,14.7 3.9,21.8 0.4,1.4 0.9,2.7 1.7,3.9 4.3,6.7 8.2,13.7 13.1,20 2,2.7 3.4,5.6 2.8,9.1 -0.2,1.1 0.3,1.9 1,2.7 1.5,1.6 1.9,3.5 1.9,5.5 0,2 0,4 0,6 -0.1,3.4 -1.9,6.1 -6.4,6.7 -1,0.1 -2,0.1 -3,0.1 -23.5,0 -47,0 -70.5,0 -2.4,0 -4.9,0 -7,-1.5 -1,-0.7 -2.1,-0.7 -3.3,-0.7 -12,0 -23.9,0 -35.9,0 -0.6,0 -1.1,0 -1.7,0.1 -0.6,0.1 -1,0.5 -1.2,1.1 -0.2,0.7 -0.3,1.4 -0.4,2.1 -1.2,11.8 -2.4,23.5 -3.6,35.3 -1.3,12 -2.6,24.1 -3.9,36.1 -1.3,12 -2.5,24.1 -3.7,36.1 -1,9.3 -2,18.7 -3,28 -1,9.3 -2,18.7 -2.9,28 -0.4,3.7 -0.7,7.4 -1.1,11 -0.1,1.1 -0.3,2.3 -0.6,3.4 -1,3.3 -3.8,5.6 -7.1,5.9 -3.5,0.3 -6.8,-1.7 -8.1,-5.1 -0.4,-1 -0.7,-2.2 -0.8,-3.3 -0.9,-8.4 -1.7,-16.7 -2.6,-25.1 -1,-10.3 -2.1,-20.7 -3.1,-31 -1,-9.6 -1.9,-19.3 -2.9,-28.9 -1,-10.1 -2,-20.1 -3.1,-30.2 -1,-9.5 -1.9,-19 -2.9,-28.5 -1,-10.3 -2.1,-20.7 -3.1,-31 -1,-9.5 -1.9,-19 -2.8,-28.5 -1,-10.2 -2.1,-20.4 -3.1,-30.6 -1,-9.9 -2,-19.8 -3,-29.8 -0.1,-0.8 0,-1.7 -0.5,-2.5 -0.1,-0.1 -0.2,-0.1 -0.4,-0.1 -0.1,0 -0.3,0.1 -0.3,0.1 -0.2,0.5 -0.4,1.1 -0.4,1.6 -1.2,12.3 -2.4,24.7 -3.7,37 -1.3,12.5 -2.6,24.9 -3.9,37.4 -1,9.6 -1.9,19.3 -2.9,28.9 -0.9,8.9 -1.8,17.9 -2.7,26.8 -0.1,1.1 -0.4,2.3 -0.7,3.3 -1.1,3.3 -4,5.4 -7.4,5.4 -3.7,0.1 -6.6,-1.9 -7.8,-5.4 -0.4,-1.1 -0.6,-2.2 -0.7,-3.3 -1.5,-13.7 -3,-27.5 -4.5,-41.2 -0.9,-7.8 -1.7,-15.6 -2.6,-23.3 -0.3,-0.5 -0.2,-1.5 -1.2,-1.9 z"
   id="path850" />
	<path
   d="m 831.6,442.6 c 0.6,-6.2 1.3,-12.4 1.9,-18.7 1,-10.2 2.1,-20.4 3.1,-30.6 1,-9.6 1.9,-19.3 2.9,-28.9 1,-10.1 2,-20.1 3.1,-30.2 0.7,-6.8 1.4,-13.6 2.1,-20.4 1,-10.2 2.1,-20.4 3.1,-30.6 1,-9.5 1.9,-19 2.9,-28.5 1,-10.3 2.1,-20.7 3.1,-31 0.7,-6.5 1.3,-13 2,-19.5 1,-9.6 1.9,-19.3 2.9,-28.9 0.1,-1.3 0.3,-2.6 0.7,-3.8 1,-3.5 4.1,-5.7 7.6,-5.8 3.6,0 6.6,2 7.8,5.5 0.3,0.9 0.5,1.9 0.6,2.9 1.2,11.8 2.4,23.5 3.6,35.3 1.3,12.5 2.6,24.9 3.9,37.4 1,9.6 1.9,19.3 2.9,28.9 1.2,11.6 2.4,23.2 3.6,34.8 0,0.1 0.1,0.2 0.3,0.6 1,-1.6 1,-3.2 1.2,-4.9 0.9,-7.8 1.7,-15.6 2.6,-23.3 0.1,-0.6 0.1,-1.1 0.2,-1.7 0.8,-3.8 3.6,-6.5 7.2,-6.9 3.5,-0.4 7,1.7 8.5,5.2 0.5,1.2 0.8,2.4 1.2,3.6 4.6,14.8 9.1,29.7 13.7,44.5 1.6,5.2 0.6,4.7 6.3,4.8 10.8,0 21.6,0 32.5,0 2,0 4,0.1 5.8,1.1 2.1,1.1 3.6,2.7 3.4,5.4 -0.1,1.1 0,2.3 0,3.4 -0.1,3.3 -1.6,5.3 -4.8,6.1 -1.4,0.3 -2.8,0.4 -4.2,0.4 -13.8,0 -27.6,0 -41.4,0 -0.6,0 -1.1,0 -1.7,-0.1 -4.2,-0.2 -6.9,-2.4 -8.3,-6.2 -0.8,-2.3 -1.4,-4.6 -2.1,-6.9 -0.8,-2.7 -1.6,-5.5 -2.5,-8.2 -0.3,-0.9 -0.3,-2 -1.4,-2.5 -0.8,1.1 -0.8,2.4 -0.9,3.7 -1.3,11.3 -2.5,22.6 -3.7,34 -1.1,10 -2.2,20.1 -3.4,30.1 -0.1,1 -0.3,2 -0.7,2.9 -1.3,3.5 -4.2,5.4 -8,5.2 -3.6,-0.2 -6.5,-2.5 -7.4,-6 -0.3,-1.2 -0.5,-2.5 -0.6,-3.8 -1,-9.5 -1.9,-19 -2.9,-28.5 -1,-9.9 -2,-19.8 -3,-29.7 -1,-9.6 -1.9,-19.3 -2.9,-28.9 -1,-10.1 -2.1,-20.1 -3.1,-30.2 -0.5,-4.7 -0.9,-9.3 -1.4,-14.1 -1.2,0.3 -1.1,1.3 -1.2,1.9 -0.4,3.4 -0.8,6.8 -1.1,10.2 -1.3,12.6 -2.5,25.2 -3.7,37.8 -1.3,12.6 -2.6,25.2 -3.9,37.8 -1,9.9 -1.9,19.8 -2.9,29.8 -1.3,12.6 -2.6,25.2 -3.9,37.8 -1,9.8 -1.9,19.6 -2.9,29.3 -1,9.9 -2,19.8 -3,29.7 -1,9.8 -1.9,19.6 -2.9,29.3 -0.8,7.6 -1.6,15.3 -2.4,22.9 -0.1,1.1 -0.3,2.3 -0.7,3.3 -1.3,3.4 -4.6,5.4 -8.1,5.2 -3.5,-0.2 -6.5,-2.7 -7.3,-6.2 -0.4,-1.7 -0.6,-3.4 -0.7,-5.1 -1,-9.3 -1.9,-18.7 -2.9,-28 -1.3,-12.2 -2.6,-24.3 -3.9,-36.5 -0.9,-8.9 -1.9,-17.8 -2.8,-26.8 -1.1,-10.1 -2.1,-20.1 -3.2,-30.2 -1,-9.3 -1.9,-18.7 -2.9,-28 -0.8,-7.9 -1.7,-15.9 -2.5,-23.8 0,-0.3 -0.1,-0.6 -0.1,-0.8 -0.1,-1 -0.6,-1.6 -1.6,-1.6 -0.9,-0.1 -1.7,-0.1 -2.6,-0.1 -9.5,0 -19.1,0 -28.6,0 -1.7,0 -3.4,0 -4.9,1 -1.5,0.9 -3.3,0.7 -5,0.7 -8.7,0 -17.4,0 -26.1,0 -8.5,0 -17.1,0 -25.6,0 -0.9,0 -1.7,0 -2.6,0 -4.4,-0.1 -6.6,-2.1 -7,-6.4 -0.2,-2.5 -0.1,-5.1 0,-7.7 0.1,-1.7 0.6,-3.4 2,-4.6 1.1,-0.9 1.4,-2 1.3,-3.4 0,-4 1.2,-7.6 3.9,-10.6 3.6,-4 5.5,-8.9 6.9,-14 1.1,-3.8 1.7,-7.8 2.5,-11.7 0.7,-3.3 1.3,-6.7 2,-10.1 0.4,-1.9 0.3,-3.5 -0.7,-5.3 -1.1,-2.1 -2.1,-3.9 -4.2,-5.1 -3.8,-2.3 -3.8,-7.7 -0.5,-10.6 0.9,-0.8 2.9,-0.6 2.7,-2.3 -0.1,-1.1 -0.8,-2.1 -1.2,-3.1 -4.3,-10.8 1.2,-22.4 12.3,-26.1 8.6,-2.9 18,0.5 22.7,6.7 4.5,5.9 5.3,12.4 2.7,19.3 -0.4,1.2 -1.7,2.2 -1.3,3.5 0.4,1.5 2.2,0.8 3.3,1.5 0.7,0.4 1.6,0.7 2.3,1.1 2.7,1.9 3.4,5.1 1.7,7.9 -1.1,1.8 -2.7,2.9 -4.6,3.6 -1.6,0.6 -2.4,1.7 -3,3.3 -1.5,3.6 -1,7.3 -0.5,11 0.9,6.2 2.5,12.3 5,18 2.1,4.8 4.4,9.6 8.2,13.4 2.7,2.7 4.1,6.1 3.2,10.1 -0.4,1.9 0.6,3.3 2.6,3.5 1.1,0.2 2.3,0.1 3.4,0.1 11.4,0 22.8,0 34.2,0 1.3,0 2.6,0.1 3.8,0 3.6,-0.1 7.6,2.4 8.5,7.5 0.4,2 0.5,4 0.7,5.9 1.5,14.9 3.1,29.7 4.6,44.6 1.6,14.7 3.2,29.4 4.8,44.2 -0.2,3.3 -0.3,6.3 1.4,9.2 z"
   id="path852" />
	<path
   d="m 539.7,261.3 c -3,-0.1 -6.1,-0.3 -9.2,-0.4 -0.8,0 -1.3,0.4 -1.9,0.9 -1.3,1.3 -2.7,2.5 -4,3.9 -3.6,3.8 -8.6,3.4 -12,1 -3.5,-2.4 -6.4,-5.2 -8.4,-8.9 -1.6,-3 -1.7,-5.9 0.2,-8.8 3.4,-5.3 6.6,-10.6 10.6,-15.5 1.8,-2.1 3.2,-4.3 3.4,-7.2 0.2,-3 1.7,-5 4.5,-6.2 0.1,-0.1 0.2,-0.1 0.4,-0.2 3.2,-1.9 2.6,-2 1.6,-4.7 -1.5,-3.7 -0.6,-6.5 2.7,-8.9 0.5,-0.3 1,-0.6 1.5,-0.9 1,-0.5 1.5,-1.2 1.7,-2.3 0.1,-0.7 0.2,-1.4 0.4,-2.1 1.3,-4 5.2,-5.1 8.5,-2.4 0.1,0.1 0.2,0.2 0.3,0.3 2.1,2.9 5.2,3.7 8.6,4 9.5,0.9 17.8,4.7 25.7,9.8 8.9,5.7 14.5,13.9 17.9,23.7 1.8,5.3 2.6,10.7 2.8,16.3 0.3,10.5 -1.9,20.4 -5.5,30 -1.8,4.9 -3,10.1 -4.8,15 -0.4,1 -0.1,1.9 0.9,2.6 2.3,1.4 3,3.6 3.1,6.2 0,3.1 0.2,6.3 -2.3,8.8 -0.6,0.6 -1.6,1 -1.4,2 0.3,1.3 0,3 1.3,4 2,1.5 3.4,3.8 6,4.7 1.5,0.5 2.5,1.8 3.4,3.1 0.4,0.6 0.6,1.4 1.1,1.8 2.2,2 2.7,4.6 2.6,7.4 -0.1,1.7 0,3.4 -0.1,5.1 -0.2,2.9 -1.9,5 -4.7,5.9 -1.8,0.6 -3.6,0.6 -5.5,0.6 -14.4,0 -28.8,0 -43.2,0 -11.5,0 -23.1,0 -34.6,0 -1.6,0 -3.1,0 -4.7,-0.4 -3.3,-0.8 -5.2,-2.8 -5.4,-6.3 -0.1,-2.6 -0.1,-5.1 0,-7.7 0,-1 0.3,-2.1 0.9,-2.8 1.4,-1.8 2.7,-3.8 4.5,-5 2.4,-1.6 4.2,-3.8 6.4,-5.6 1.4,-1.1 1.9,-2.3 1.9,-4 0,-1.2 -0.1,-2.3 -1.2,-3 -4.2,-3.1 -4,-7.6 -3.5,-12 0.2,-2.3 1.5,-3.9 3.6,-4.9 0.5,-0.2 1,-0.5 1.6,-0.7 1.1,-0.3 1.7,-0.9 2,-2 2.6,-10.3 9,-18.2 16.1,-25.8 1.9,-2 3.6,-4 5.4,-6.1 0.6,-0.4 1.2,-1 0.8,-2.3 z"
   id="path854" />
	<path
   d="m 402.1,329.2 c 0.5,0.6 1.2,0.6 1.9,0.7 2.8,0.7 4.4,2.6 4.8,5.4 0.4,3 0.4,6 0,8.9 -0.3,2.7 -2,4.3 -4.5,5.2 -1.4,0.5 -2.8,0.5 -4.2,0.5 -23.9,0 -47.8,0 -71.7,0 -1.3,0 -2.6,-0.1 -3.8,-0.4 -2.8,-0.6 -4.5,-2.5 -4.7,-5.3 -0.2,-3 -0.1,-6 -0.1,-9 0,-2 1.1,-3.6 2.8,-4.5 1.4,-0.8 1.9,-1.9 2.1,-3.4 0.2,-2.1 1.2,-4.1 2.4,-5.9 1.1,-1.7 2.2,-3.3 3.4,-4.9 1.8,-2.6 3.4,-5.3 4.7,-8.1 0.7,-1.4 1.2,-3 2,-4.2 2.1,-3 2.8,-6.5 3.4,-10 1.1,-6.9 1.5,-13.9 1.9,-20.8 0.4,-6.8 0.5,-13.6 0.7,-20.5 0,-1.1 0,-2.3 0,-3.4 0.2,-3.8 -0.8,-7 -4,-9.3 -1.2,-0.9 -2.2,-2.2 -3.1,-3.5 -3.5,-4.8 -2,-10 3.7,-11.8 3.4,-1.1 3.4,-1 3.4,-4.8 -0.1,-5 -1.1,-9.9 -3.8,-14.2 -1.5,-2.4 -3,-4.8 -4.4,-7.3 -2.1,-3.9 -1.2,-7.7 2.3,-10.1 1.7,-1.2 3.8,-1.6 5.7,-1 2.2,0.7 4.1,0.4 6.1,-0.7 0.6,-0.3 1.4,-0.3 2.1,-0.4 0.8,-0.1 1.2,-0.6 1.3,-1.4 0.6,-4.5 3.7,-6.7 7.6,-7.6 4.1,-1 7.9,0 10.7,3.5 0.7,0.9 1.3,1.9 1.5,3 0.2,1.3 1,2 2.2,2.3 1.7,0.5 3.3,1.3 5.3,0.8 6.4,-1.8 11,5.2 9.9,10 -0.4,1.8 -1,3.6 -2.1,5.1 -4.3,5.9 -5.4,12.8 -6.4,19.7 -0.3,2 0.1,2.5 2.1,3 0.7,0.2 1.4,0.2 2.1,0.4 4.5,1.3 6.5,5.3 4.8,9.7 -0.9,2.3 -2.4,4.2 -4.4,5.6 -1.8,1.2 -2.5,2.8 -2.8,5 -1.7,10.9 -0.4,21.6 1.3,32.3 1.5,8.9 3.9,17.5 6.5,26.1 1.4,4.8 3.7,9.2 7.2,12.9 1,1 1.8,2.2 2.6,3.4 1.5,2.2 2.2,4.6 1.6,7.3 -0.3,0.3 -0.5,1 -0.1,1.7 z"
   id="path856" />
	<path
   d="m 453.7,349.5 c -9.8,0 -19.6,0 -29.5,0 -1,0 -2,0 -3,0 -4.9,-0.2 -7.2,-2.5 -7.4,-7.5 -0.1,-1.7 0,-3.4 0,-5.1 -0.1,-2.4 0.4,-4.5 2.3,-6.2 0.8,-0.7 1.1,-1.6 1.2,-2.6 0.2,-1.9 1.1,-3.5 2.2,-5 5.4,-7.5 9.6,-15.7 13.1,-24.3 1.7,-4.1 2.1,-8.5 2.7,-12.9 0.4,-3.2 0.5,-6.5 0.5,-9.8 0,-5.1 -0.3,-10.2 -0.4,-15.4 0,-2.1 -0.6,-3.5 -2.9,-4 -1.7,-0.3 -3,-1.5 -4.1,-2.9 -2.2,-3 -1.8,-6.8 1.1,-9.2 0.9,-0.7 1.9,-1.2 2.9,-1.8 0.5,-0.3 1.1,-0.4 1.5,-0.7 1.2,-1.1 2.1,-2.2 1.6,-4.1 -0.8,-2.7 -1.5,-5.5 -2.2,-8.3 -1,-4.3 -1.5,-8.7 -1.1,-13.1 0.6,-5.9 3.2,-10.9 7.4,-15 0.9,-0.9 1.9,-1.8 2.9,-2.5 1.6,-1.1 2.4,-2.4 2.5,-4.5 0.1,-4.3 2,-6 6.2,-6.8 1.6,-0.3 3.1,-0.3 4.7,0.1 3.7,0.9 5.3,2.6 5.4,6.5 0,1.5 0.6,2.4 1.6,3.2 2.9,2.1 5.5,4.5 7.6,7.4 3.7,5.2 5.4,10.9 4.6,17.3 -0.3,2.3 -0.5,4.6 -1.1,6.7 -0.8,3.1 -0.7,6.2 -1.1,9.3 -0.3,1.9 0.3,3.3 2.2,4.1 0.8,0.3 1.5,0.8 2.2,1.3 4.4,3.6 3.6,10.7 -1.8,12.5 -3.4,1.2 -4.3,3.4 -4.5,6.4 -0.2,2.5 -0.3,5.1 -0.2,7.7 0.6,10.7 2.6,21.2 6.4,31.2 1.8,4.7 3.8,9.2 7.1,13 2.9,3.4 4.3,7.3 4.5,11.7 0,1.4 0.2,2.4 1.7,3.1 2.8,1.3 4.3,3.7 4.7,6.7 0.3,1.7 0.7,3.4 0.7,5.1 0,3.6 -1.9,6.2 -5.3,7.5 -1.9,0.7 -3.8,0.9 -5.9,0.9 -10.2,-0.1 -20.6,0 -31,0 z"
   id="path858" />
	<path
   d="m 647.3,349.5 c -10.5,0 -21.1,0 -31.6,0 -1,0 -2,0 -3,0 -4.1,-0.2 -6.4,-2.3 -6.7,-6.3 -0.2,-2.7 -0.1,-5.4 0,-8.1 0,-1.2 0.3,-2.4 1.1,-3.2 1.4,-1.3 1.5,-2.9 1.6,-4.7 0.2,-2.7 1.2,-5.3 2.7,-7.6 1.9,-3 3.8,-6 5.7,-9 2.9,-4.5 4.6,-9.4 5.3,-14.7 1.6,-12 2.3,-24.1 1.7,-36.2 -0.1,-1.1 -0.2,-2.3 -0.2,-3.4 -0.1,-2.3 -0.9,-4.1 -3.3,-4.9 -1.8,-0.6 -3.3,-1.7 -4.5,-3.2 -2.4,-2.9 -2.3,-6.2 0.5,-8.7 1.2,-1.1 1.7,-2.1 1.6,-3.7 -0.1,-2.6 -0.1,-5.1 -0.1,-7.7 0,-1 0,-2 0.2,-3 0.4,-1.9 1.5,-3.3 3.6,-3.8 2.9,-0.7 5.9,-1 8.9,-1.1 10,-0.3 19.9,-0.7 29.9,-0.4 2,0.1 4,0.2 5.9,0.5 3.2,0.5 4.8,2.2 5,5.4 0.2,3 0.1,6 0.1,9 0,1.6 0.2,3 1.6,4.2 2.9,2.7 2.5,7.8 -0.9,10.6 -0.8,0.6 -1.6,1.2 -2.4,1.7 -2.3,1.2 -3.2,3.2 -3.2,5.6 0,2.3 0,4.6 0.1,6.8 0.4,5.3 0.7,10.5 1.4,15.7 1.1,8.3 2.2,16.6 4.2,24.8 0.6,2.4 1.6,4.5 3.6,6.1 0.7,0.5 1.2,1.2 1.9,1.7 4.3,3.9 6.4,8.7 6.1,14.4 -0.1,1.8 0.3,2.9 1.8,3.9 1.8,1.2 2.5,3.1 2.6,5.2 0.2,2.4 0.2,4.9 0,7.3 -0.4,4.1 -2.9,6.3 -7.1,6.5 -1,0.1 -2,0 -3,0 -10.3,0.3 -20.7,0.3 -31.1,0.3 z"
   id="path860" />
</g><g
         id="g26"
         transform="translate(189.04371,11.995901)"><g
           id="g25"
           transform="translate(0,-9.02811)"><g
             id="g4"
             transform="matrix(0.72426663,0,0,0.72426663,-115.68707,241.22596)"
             style="stroke-width:1.03518"><g
               id="g55343"
               transform="matrix(0.70594892,0,0,0.70594892,161.52763,586.73025)"
               style="stroke-width:1.46637"><path
                 id="path264"
                 style="fill:#77bfff;stroke:#1a1a1a;stroke-width:8.44828"
                 d="M 210.12574,88.515884 A 60.12574,60.12574 0 0 1 150,148.64162 60.12574,60.12574 0 0 1 89.87426,88.515884 60.12574,60.12574 0 0 1 150,28.390144 a 60.12574,60.12574 0 0 1 60.12574,60.12574 z" /><g
                 transform="matrix(0.09147093,0,0,-0.09147093,47.261907,168.45194)"
                 fill="#040404"
                 stroke="none"
                 id="g72"
                 style="stroke-width:1.46637"><path
                   class="node"
                   id="node1"
                   d="m 1099,1244 c -13,-15 -58,-52 -99,-84 C 855,1049 825,999 833,882 c 2,-42 10,-105 16,-139 11,-58 6,-107 -13,-153 -5,-11 3,-19 25,-27 17,-7 33,-21 36,-32 5,-20 12,-21 210,-21 h 206 l -5,45 c -8,62 -48,140 -110,209 l -52,59 53,-7 c 30,-4 82,-18 115,-32 l 61,-25 53,55 c 56,58 64,81 31,91 -11,4 -57,45 -102,91 -45,46 -101,94 -124,105 -36,18 -43,25 -43,50 0,35 -20,76 -47,102 -19,16 -21,16 -44,-9 z"
                   style="stroke-width:1.46637" /><path
                   class="node"
                   id="node3"
                   d="m 885,470 c -16,-26 14,-30 216,-30 202,0 209,1 209,20 0,19 -7,20 -209,20 -129,0 -212,-4 -216,-10 z"
                   style="stroke-width:1.46637" /></g><path
                 style="font-weight:bold;font-size:29.0549px;line-height:0.05;font-family:'Liberation Mono';-inkscape-font-specification:'Liberation Mono Bold';letter-spacing:3.22494px;word-spacing:0px"
                 d="m 224.92908,101.57231 -15.73669,-2.297977 0.60473,-4.141234 15.73669,2.297978 0.83227,-5.69946 3.20068,0.467386 -2.26928,15.540157 -3.20068,-0.46739 z m -20.82319,24.89142 q -2.26732,-1.20542 -2.71923,-3.43802 -0.4519,-2.23261 1.00659,-4.97595 l 3.876,-7.29051 16.89846,8.98406 -3.49639,6.57649 q -1.45184,2.73081 -3.30008,3.54774 -1.84237,0.83611 -3.89675,-0.2561 -1.44056,-0.76587 -1.99062,-2.11876 -0.53753,-1.34622 0.0116,-3.25551 -1.3643,2.02219 -3.00926,2.57764 -1.65162,0.56797 -3.3803,-0.35108 z m 9.8455,-0.8391 q 2.00426,1.06557 3.11645,-1.02638 l 1.39189,-2.61807 -3.996,-2.12448 -1.40522,2.64313 q -1.09886,2.0669 0.89288,3.1258 z m -7.55437,-2.71482 q 1.10234,0.58606 2.04406,0.23516 0.95425,-0.34424 1.62689,-1.60944 l 1.66495,-3.13166 -4.68497,-2.49076 -1.71157,3.21935 q -1.33196,2.50533 1.06064,3.77735 z m -6.95731,14.97222 q -2.14885,-2.36045 -4.04837,-2.97181 -1.89951,-0.61136 -3.35775,0.71615 -1.69952,1.54718 -0.1875,4.85189 l -3.36064,2.06175 q -2.6541,-5.71835 1.36391,-9.37617 2.94794,-2.68368 6.20057,-2.22977 3.25169,0.47396 6.53705,4.08282 6.58026,7.22823 0.62143,12.65288 -1.9513,1.77639 -4.19861,1.94208 -2.2578,0.17525 -4.72,-1.28601 l 2.2232,-3.29012 q 1.31658,0.83507 2.47898,0.88961 1.17195,0.065 1.95876,-0.65124 2.85353,-2.59773 -1.51103,-7.39206 z m -28.68716,7.12338 3.13259,7.51668 4.75358,-1.98107 -3.13259,-7.51668 3.8631,-1.60995 7.36214,17.6655 -3.8631,1.60996 -2.89792,-6.95358 -4.75358,1.98106 2.89792,6.95358 -3.8631,1.60996 -7.36214,-17.66551 z m -10.90882,3.21052 0.97984,19.11312 -13.71497,0.7031 -0.16561,-3.23038 9.53531,-0.48883 -0.23534,-4.59055 -8.67103,0.44452 -0.16561,-3.23038 8.67103,-0.44453 -0.24768,-4.83141 -10.11621,0.51862 -0.16561,-3.23039 z m -36.25382,0.93348 q 0.78523,-2.60826 3.23205,-3.50139 2.42914,-0.88364 5.97475,0.18378 3.1924,0.96108 4.79806,2.91125 1.60565,1.95016 1.40325,4.68944 l -4.02296,-0.66294 q 0.072,-1.37102 -0.69476,-2.41673 -0.77084,-1.03213 -2.4961,-1.55152 -1.79318,-0.53984 -2.82078,-0.22694 -1.04119,0.30882 -1.40517,1.51786 -0.26993,0.89659 0.30678,1.73692 0.57262,0.85392 1.91985,1.64473 2.70804,1.58569 3.76167,2.46589 1.03596,0.8897 1.55964,1.75852 0.52368,0.86882 0.6559,1.85685 0.11454,0.99751 -0.21264,2.08429 -0.7157,2.37732 -3.03471,3.1904 -2.3326,0.80899 -5.45708,-0.13164 -3.04297,-0.9161 -4.39066,-2.64044 -1.35177,-1.71076 -1.09372,-4.38884 l 4.00383,0.77571 q -0.1507,2.66594 2.41681,3.4389 1.43998,0.43351 2.36431,0.11915 0.92025,-0.30078 1.22288,-1.30605 0.2004,-0.66565 -0.0314,-1.22437 -0.23591,-0.54513 -0.76674,-1.04571 -0.54851,-0.49108 -2.3398,-1.57854 -2.3658,-1.39376 -3.50474,-2.58115 -1.14303,-1.17381 -1.45434,-2.4528 -0.3113,-1.27899 0.10585,-2.66463 z M 104.70539,136.7063 q 1.61809,-2.19121 4.22277,-2.20774 2.58484,-0.0135 5.56351,2.18605 2.68195,1.98048 3.53667,4.3576 0.85473,2.37712 -0.25875,4.88805 l -3.5644,-1.97959 q 0.52971,-1.26662 0.16011,-2.50952 -0.37803,-1.23149 -1.82742,-2.30179 -1.50646,-1.11243 -2.57941,-1.16404 -1.08436,-0.06 -1.83441,0.95567 -0.55622,0.75323 -0.29636,1.73874 0.25144,0.99692 1.25346,2.1954 2.01547,2.40537 2.71094,3.5891 0.67562,1.18672 0.87597,2.18118 0.20034,0.99446 -0.008,1.96927 -0.22824,0.97778 -0.90245,1.89079 -1.47482,1.99719 -3.93219,1.98141 -2.46878,-0.0242 -5.09366,-1.96254 -2.55641,-1.88778 -3.244339,-3.96537 -0.696354,-2.06617 0.448908,-4.50073 l 3.508391,2.07932 q -1.0401,2.45931 1.11687,4.05212 1.20973,0.89332 2.18594,0.90876 0.96778,0.0269 1.59141,-0.81767 0.41296,-0.55922 0.38293,-1.16337 -0.0385,-0.59275 -0.3696,-1.24291 -0.35099,-0.64717 -1.67116,-2.27457 -1.75789,-2.10936 -2.43019,-3.61106 -0.68072,-1.49029 -0.5429,-2.79938 0.13781,-1.3091 0.99742,-2.47318 z"
                 id="text6168"
                 transform="matrix(-0.6077557,-0.25421551,0.25421551,-0.6077557,218.75882,179.30479)"
                 aria-label="TBCHESS" /><path
                 style="font-weight:bold;font-size:8.35957px;line-height:0.05;font-family:'Liberation Mono';-inkscape-font-specification:'Liberation Mono Bold';letter-spacing:0.927873px;word-spacing:0px;stroke-width:0.421897"
                 d="m 126.77358,138.22444 v -5.50638 h 3.9512 v 0.93066 h -2.74706 v 1.32251 h 2.49807 v 0.93066 h -2.49807 v 1.3919 h 2.91442 v 0.93065 z m 9.89155,-1.28985 q 0,0.64084 -0.52655,1.00821 -0.52248,0.36328 -1.44905,0.36328 -0.91025,0 -1.39598,-0.28573 -0.48166,-0.28981 -0.64085,-0.898 l 1.00821,-0.15103 q 0.0857,0.3143 0.29389,0.44492 0.21226,0.13062 0.73473,0.13062 0.48166,0 0.70207,-0.12246 0.22042,-0.12245 0.22042,-0.38369 0,-0.21225 -0.1796,-0.33471 -0.17552,-0.12653 -0.60003,-0.21225 -0.97147,-0.19185 -1.31026,-0.35512 -0.33879,-0.16735 -0.51839,-0.42859 -0.17552,-0.26532 -0.17552,-0.64901 0,-0.63268 0.48574,-0.98372 0.48982,-0.35512 1.38373,-0.35512 0.7878,0 1.26537,0.30614 0.48165,0.30614 0.60003,0.88575 l -1.01638,0.10613 q -0.049,-0.2694 -0.24082,-0.40002 -0.19185,-0.1347 -0.6082,-0.1347 -0.40818,0 -0.61227,0.10613 -0.20409,0.10205 -0.20409,0.34696 0,0.19184 0.15511,0.30613 0.15919,0.11021 0.53064,0.18368 0.51839,0.10613 0.91841,0.22042 0.4041,0.11021 0.64492,0.26532 0.24491,0.15511 0.38778,0.40002 0.14694,0.24083 0.14694,0.62044 z m 2.77694,-2.35113 h -0.68166 v -0.77555 h 0.73881 l 0.3592,-1.15107 h 0.7184 v 1.15107 h 1.5715 v 0.77555 h -1.5715 v 2.16336 q 0,0.3592 0.0653,0.48574 0.0694,0.12245 0.22041,0.19593 0.15103,0.0694 0.42451,0.0694 0.50615,0 1.04087,-0.11021 v 0.75922 q -0.57962,0.0939 -0.82045,0.11021 -0.24083,0.0204 -0.50206,0.0204 -0.51839,0 -0.86943,-0.13879 -0.34695,-0.14286 -0.52655,-0.44083 -0.17552,-0.30206 -0.17552,-0.84494 z m 6.52405,3.64098 v -1.24495 h 1.17965 v 1.24495 z m 4.52804,0 v -0.79595 q 0.20409,-0.449 0.57962,-0.898 0.37961,-0.45309 1.10209,-1.04087 0.56329,-0.46124 0.73065,-0.63676 0.16735,-0.17552 0.26123,-0.33879 0.098,-0.16736 0.098,-0.33879 0,-0.2939 -0.19185,-0.46125 -0.19184,-0.16736 -0.56329,-0.16736 -0.36736,0 -0.56329,0.20001 -0.19185,0.19593 -0.24899,0.59187 l -1.15516,-0.0653 q 0.098,-0.80004 0.59595,-1.22047 0.50206,-0.42042 1.36333,-0.42042 0.88983,0 1.40822,0.40818 0.5184,0.4041 0.5184,1.08576 0,0.44492 -0.28165,0.86943 -0.27756,0.42043 -0.83677,0.85718 -0.79188,0.61228 -1.06536,0.88168 -0.27348,0.2694 -0.39594,0.54696 h 2.66952 v 0.9429 z m 9.97727,-2.75523 q 0,1.38374 -0.52247,2.1103 -0.52248,0.72657 -1.51844,0.72657 -1.00005,0 -1.51027,-0.72248 -0.50615,-0.72657 -0.50615,-2.11439 0,-1.4368 0.4939,-2.13479 0.49798,-0.70207 1.55517,-0.70207 1.02046,0 1.51436,0.71023 0.4939,0.71024 0.4939,2.12663 z m -1.15107,0 q 0,-0.7184 -0.0857,-1.13474 -0.0857,-0.42043 -0.26532,-0.61228 -0.1796,-0.19184 -0.51431,-0.19184 -0.35104,0 -0.5388,0.19184 -0.18776,0.19185 -0.27348,0.61228 -0.0816,0.41634 -0.0816,1.13474 0,0.71024 0.0857,1.13067 0.0898,0.42042 0.27348,0.61227 0.18368,0.19185 0.51839,0.19185 0.47349,0 0.67759,-0.44492 0.20409,-0.44492 0.20409,-1.48987 z m -1.31843,0.48982 v -1.01637 h 0.87759 v 1.01637 z m 4.38109,2.26541 v -0.79595 q 0.20409,-0.449 0.57962,-0.898 0.37961,-0.45309 1.10209,-1.04087 0.56329,-0.46124 0.73065,-0.63676 0.16735,-0.17552 0.26124,-0.33879 0.098,-0.16736 0.098,-0.33879 0,-0.2939 -0.19185,-0.46125 -0.19184,-0.16736 -0.56329,-0.16736 -0.36736,0 -0.56329,0.20001 -0.19184,0.19593 -0.24899,0.59187 l -1.15516,-0.0653 q 0.098,-0.80004 0.59595,-1.22047 0.50206,-0.42042 1.36333,-0.42042 0.88984,0 1.40823,0.40818 0.51839,0.4041 0.51839,1.08576 0,0.44492 -0.28165,0.86943 -0.27756,0.42043 -0.83677,0.85718 -0.79187,0.61228 -1.06536,0.88168 -0.27348,0.2694 -0.39593,0.54696 h 2.66951 v 0.9429 z m 6.05056,0 v -0.8531 h 1.58783 v -3.6369 q -0.15919,0.33471 -0.63676,0.56329 -0.4735,0.22858 -0.99597,0.22858 v -0.87351 q 0.56737,0 1.01637,-0.24899 0.449,-0.24899 0.67759,-0.68575 h 1.08576 v 4.65328 h 1.31843 v 0.8531 z"
                 id="text35089"
                 transform="rotate(-0.15663417)"
                 aria-label="Est.2021" /><text
                 xml:space="preserve"
                 style="font-size:40px;line-height:1.25;font-family:'Adobe Garamond Pro';-inkscape-font-specification:'Adobe Garamond Pro';letter-spacing:0px;word-spacing:0px;stroke-width:1.46637"
                 x="121.65176"
                 y="19.806662"
                 id="text62593"><tspan
                   sodipodi:role="line"
                   id="tspan62591"
                   x="121.65176"
                   y="19.806662"
                   style="stroke-width:1.46637" /></text></g></g><g
             id="text7"
             style="font-size:14.3081px;line-height:1.25;font-family:'TeX Gyre Chorus';-inkscape-font-specification:'TeX Gyre Chorus';text-align:center;letter-spacing:1.30432px;word-spacing:0px;white-space:pre;stroke-width:0.488954"
             transform="matrix(0.92457015,0,0,0.92457015,-115.31716,-203.49894)"
             aria-label="ORGANIZED BY&#10;TBCHESS.ORG"><path
               style="font-weight:bold;font-family:Roboto;-inkscape-font-specification:'Roboto Bold';text-anchor:middle"
               d="m 162.2053,1042.2278 q 0,1.5021 -0.53096,2.6339 -0.53097,1.1318 -1.52303,1.7466 -0.98508,0.6148 -2.26359,0.6148 -1.26453,0 -2.2566,-0.6078 -0.99206,-0.6078 -1.537,-1.7326 -0.54494,-1.1318 -0.55192,-2.599 v -0.503 q 0,-1.5021 0.53795,-2.6409 0.54493,-1.1457 1.53001,-1.7535 0.99207,-0.6148 2.26359,-0.6148 1.27152,0 2.2566,0.6148 0.99207,0.6078 1.53002,1.7535 0.54493,1.1388 0.54493,2.6339 z m -2.12386,-0.4611 q 0,-1.5999 -0.57288,-2.4312 -0.57288,-0.8314 -1.63481,-0.8314 -1.05494,0 -1.62783,0.8244 -0.57288,0.8174 -0.57987,2.4033 v 0.496 q 0,1.558 0.57289,2.4173 0.57288,0.8593 1.64878,0.8593 1.05495,0 1.62084,-0.8244 0.5659,-0.8313 0.57288,-2.4172 z m 8.71687,1.5929 h -1.66974 v 3.7238 h -2.09592 v -10.1722 h 3.77963 q 1.80249,0 2.78058,0.8034 0.97809,0.8035 0.97809,2.2706 0,1.041 -0.45411,1.7396 -0.44713,0.6917 -1.36234,1.1039 l 2.2007,4.1569 v 0.098 h -2.24961 z m -1.66974,-1.6977 h 1.6907 q 0.78946,0 1.22262,-0.3982 0.43315,-0.4052 0.43315,-1.1108 0,-0.7196 -0.4122,-1.1318 -0.4052,-0.4122 -1.25056,-0.4122 h -1.68371 z m 16.3879,4.136 q -0.56589,0.6776 -1.59988,1.0549 -1.03398,0.3703 -2.29153,0.3703 -1.32042,0 -2.31948,-0.5729 -0.99206,-0.5799 -1.537,-1.6767 -0.53795,-1.0969 -0.55192,-2.578 v -0.6917 q 0,-1.523 0.51,-2.6338 0.51699,-1.1178 1.48111,-1.7047 0.97111,-0.5938 2.27058,-0.5938 1.80947,0 2.82948,0.8663 1.02001,0.8593 1.20864,2.5081 h -2.04002 q -0.13973,-0.8733 -0.62179,-1.2785 -0.47507,-0.4052 -1.31344,-0.4052 -1.06891,0 -1.62782,0.8034 -0.55891,0.8034 -0.5659,2.3893 v 0.6498 q 0,1.5999 0.60782,2.4173 0.60781,0.8174 1.78152,0.8174 1.1807,0 1.68372,-0.503 v -1.7536 h -1.90728 v -1.544 h 4.00319 z m 8.74481,-0.8105 h -3.67483 l -0.69864,2.096 h -2.22865 l 3.78661,-10.1722 h 1.94222 l 3.80757,10.1722 h -2.22865 z m -3.10893,-1.6976 h 2.54304 l -1.27851,-3.8076 z m 16.56955,3.7936 h -2.09591 l -4.08005,-6.693 v 6.693 h -2.09591 v -10.1722 h 2.09591 l 4.08703,6.7069 v -6.7069 h 2.08893 z m 5.3634,0 h -2.09591 v -10.1722 h 2.09591 z m 5.4682,-1.6838 h 5.128 v 1.6838 h -7.74789 v -1.2296 l 5.03019,-7.2449 h -5.0232 v -1.6977 h 7.62912 v 1.2017 z m 13.87282,-2.7246 h -4.02415 v 2.7246 h 4.72279 v 1.6838 h -6.81871 v -10.1722 h 6.80474 v 1.6977 h -4.70882 v 2.4243 h 4.02415 z m 3.23256,4.4084 v -10.1722 h 3.12989 q 1.34139,0 2.39633,0.6078 1.06193,0.6008 1.65577,1.7187 0.59384,1.1108 0.59384,2.529 v 0.4681 q 0,1.4182 -0.58685,2.5221 -0.57987,1.1038 -1.6418,1.7117 -1.06193,0.6078 -2.39633,0.6148 z m 2.09591,-8.4745 v 6.7907 h 1.01302 q 1.22961,0 1.87934,-0.8034 0.64973,-0.8034 0.66371,-2.2985 v -0.538 q 0,-1.5509 -0.64275,-2.3474 -0.64275,-0.8034 -1.87934,-0.8034 z m 13.37465,8.4745 v -10.1722 h 3.56305 q 1.85139,0 2.80852,0.7126 0.95713,0.7056 0.95713,2.075 0,0.7475 -0.38425,1.3204 -0.38425,0.5659 -1.06891,0.8314 0.78247,0.1956 1.2296,0.7894 0.45412,0.5939 0.45412,1.4532 0,1.4671 -0.93618,2.2217 -0.93617,0.7545 -2.6688,0.7685 z m 2.09591,-4.4294 v 2.7456 h 1.7955 q 0.74055,0 1.15275,-0.3493 0.41918,-0.3563 0.41918,-0.9781 0,-1.3972 -1.44618,-1.4182 z m 0,-1.4811 h 1.55097 q 1.58591,-0.028 1.58591,-1.2645 0,-0.6917 -0.40521,-0.9921 -0.39822,-0.3074 -1.26453,-0.3074 h -1.46714 z m 11.46251,0.3214 2.11687,-4.5831 h 2.29153 l -3.33949,6.4834 v 3.6888 h -2.13084 v -3.6888 l -3.33949,-6.4834 h 2.29852 z"
               id="path11" /><path
               style="font-weight:bold;font-family:Roboto;-inkscape-font-specification:'Roboto Bold';text-anchor:middle"
               d="m 164.0696,1056.5226 h -3.11592 v 8.4745 h -2.09592 v -8.4745 h -3.074 v -1.6977 h 8.28584 z m 2.49899,8.4745 v -10.1722 h 3.56305 q 1.85139,0 2.80853,0.7126 0.95713,0.7056 0.95713,2.075 0,0.7475 -0.38425,1.3204 -0.38425,0.5659 -1.06892,0.8314 0.78248,0.1956 1.22961,0.7894 0.45411,0.5939 0.45411,1.4532 0,1.4671 -0.93617,2.2217 -0.93618,0.7545 -2.6688,0.7685 z m 2.09591,-4.4294 v 2.7456 h 1.7955 q 0.74056,0 1.15276,-0.3493 0.41918,-0.3563 0.41918,-0.9781 0,-1.3972 -1.44618,-1.4182 z m 0,-1.4811 h 1.55098 q 1.58591,-0.028 1.58591,-1.2646 0,-0.6916 -0.40521,-0.992 -0.39823,-0.3074 -1.26454,-0.3074 h -1.46714 z m 16.32503,2.5221 q -0.11877,1.6418 -1.21563,2.5849 -1.08987,0.9432 -2.87838,0.9432 -1.95619,0 -3.081,-1.3135 -1.11782,-1.3204 -1.11782,-3.6189 v -0.6218 q 0,-1.4671 0.517,-2.5849 0.51699,-1.1179 1.47412,-1.7117 0.96412,-0.6008 2.23564,-0.6008 1.76057,0 2.83647,0.9431 1.0759,0.9432 1.24358,2.6479 h -2.09592 q -0.0769,-0.9851 -0.55192,-1.4253 -0.46809,-0.4471 -1.43221,-0.4471 -1.04795,0 -1.57193,0.7545 -0.51699,0.7476 -0.53097,2.3265 v 0.7685 q 0,1.6488 0.49604,2.4103 0.50301,0.7615 1.57892,0.7615 0.9711,0 1.44618,-0.4401 0.48206,-0.4471 0.55192,-1.3763 z m 10.9595,3.3884 h -2.09592 v -4.3595 h -4.08703 v 4.3595 h -2.09591 v -10.1722 h 2.09591 v 4.122 h 4.08703 v -4.122 h 2.09592 z m 9.25481,-4.4084 h -4.02415 v 2.7246 h 4.72279 v 1.6838 h -6.8187 v -10.1722 h 6.80473 v 1.6977 h -4.70882 v 2.4243 h 4.02415 z m 8.50728,1.7396 q 0,-0.5939 -0.41918,-0.9083 -0.41919,-0.3213 -1.50906,-0.6707 -1.08988,-0.3563 -1.72564,-0.6986 -1.73262,-0.9362 -1.73262,-2.5221 0,-0.8244 0.4611,-1.4671 0.46809,-0.6498 1.3344,-1.013 0.8733,-0.3633 1.95619,-0.3633 1.08987,0 1.94221,0.3982 0.85234,0.3912 1.32042,1.1108 0.47508,0.7196 0.47508,1.6348 h -2.09592 q 0,-0.6986 -0.44014,-1.0829 -0.44014,-0.3912 -1.23659,-0.3912 -0.7685,0 -1.19467,0.3284 -0.42617,0.3213 -0.42617,0.8523 0,0.496 0.49604,0.8314 0.50302,0.3353 1.47412,0.6288 1.78851,0.5379 2.60592,1.3344 0.81741,0.7964 0.81741,1.9841 0,1.3204 -0.99905,2.0749 -0.99906,0.7476 -2.68976,0.7476 -1.17371,0 -2.13783,-0.4262 -0.96412,-0.4331 -1.47413,-1.1807 -0.50302,-0.7475 -0.50302,-1.7326 h 2.1029 q 0,1.6837 2.01208,1.6837 0.74754,0 1.16673,-0.3004 0.41918,-0.3074 0.41918,-0.8523 z m 10.10017,0 q 0,-0.5939 -0.41918,-0.9083 -0.41919,-0.3213 -1.50906,-0.6707 -1.08988,-0.3563 -1.72564,-0.6986 -1.73262,-0.9362 -1.73262,-2.5221 0,-0.8244 0.4611,-1.4671 0.46809,-0.6498 1.3344,-1.013 0.8733,-0.3633 1.95619,-0.3633 1.08987,0 1.94221,0.3982 0.85234,0.3912 1.32042,1.1108 0.47508,0.7196 0.47508,1.6348 h -2.09592 q 0,-0.6986 -0.44014,-1.0829 -0.44014,-0.3912 -1.23659,-0.3912 -0.7685,0 -1.19467,0.3284 -0.42617,0.3213 -0.42617,0.8523 0,0.496 0.49604,0.8314 0.50302,0.3353 1.47412,0.6288 1.78852,0.5379 2.60592,1.3344 0.81741,0.7964 0.81741,1.9841 0,1.3204 -0.99905,2.0749 -0.99906,0.7476 -2.68976,0.7476 -1.17371,0 -2.13783,-0.4262 -0.96412,-0.4331 -1.47413,-1.1807 -0.50302,-0.7475 -0.50302,-1.7326 h 2.1029 q 0,1.6837 2.01208,1.6837 0.74754,0 1.16673,-0.3004 0.41918,-0.3074 0.41918,-0.8523 z m 4.79751,1.6767 q 0,-0.4821 0.32137,-0.7825 0.32836,-0.3004 0.81741,-0.3004 0.49603,0 0.8174,0.3004 0.32836,0.3004 0.32836,0.7825 0,0.4751 -0.32137,0.7755 -0.32137,0.2934 -0.82439,0.2934 -0.49604,0 -0.81741,-0.2934 -0.32137,-0.3004 -0.32137,-0.7755 z m 13.84486,-3.8635 q 0,1.5021 -0.53096,2.6339 -0.53097,1.1318 -1.52303,1.7466 -0.98508,0.6148 -2.26359,0.6148 -1.26453,0 -2.2566,-0.6078 -0.99206,-0.6078 -1.537,-1.7327 -0.54494,-1.1317 -0.55192,-2.5989 v -0.503 q 0,-1.5021 0.53795,-2.6409 0.54493,-1.1457 1.53001,-1.7535 0.99207,-0.6148 2.26359,-0.6148 1.27152,0 2.2566,0.6148 0.99206,0.6078 1.53001,1.7535 0.54494,1.1388 0.54494,2.6339 z m -2.12386,-0.4611 q 0,-1.5999 -0.57288,-2.4312 -0.57288,-0.8314 -1.63481,-0.8314 -1.05494,0 -1.62783,0.8244 -0.57288,0.8174 -0.57987,2.4033 v 0.496 q 0,1.558 0.57289,2.4173 0.57288,0.8593 1.64878,0.8593 1.05494,0 1.62084,-0.8244 0.5659,-0.8313 0.57288,-2.4172 z m 8.71687,1.5929 h -1.66974 v 3.7238 h -2.09591 v -10.1722 h 3.77963 q 1.80248,0 2.78057,0.8034 0.9781,0.8035 0.9781,2.2706 0,1.041 -0.45412,1.7396 -0.44713,0.6917 -1.36234,1.1039 l 2.20071,4.1568 v 0.098 h -2.24962 z m -1.66974,-1.6977 h 1.6907 q 0.78946,0 1.22262,-0.3982 0.43315,-0.4052 0.43315,-1.1108 0,-0.7196 -0.41219,-1.1318 -0.40521,-0.4122 -1.25056,-0.4122 h -1.68372 z m 16.3879,4.136 q -0.5659,0.6776 -1.59988,1.0549 -1.03398,0.3703 -2.29153,0.3703 -1.32043,0 -2.31948,-0.5729 -0.99206,-0.5799 -1.537,-1.6767 -0.53795,-1.0969 -0.55193,-2.578 v -0.6917 q 0,-1.523 0.51001,-2.6338 0.51699,-1.1178 1.48111,-1.7047 0.97111,-0.5938 2.27057,-0.5938 1.80948,0 2.82949,0.8663 1.02001,0.8593 1.20864,2.5081 h -2.04002 q -0.13973,-0.8733 -0.62179,-1.2785 -0.47507,-0.4052 -1.31344,-0.4052 -1.06891,0 -1.62782,0.8034 -0.55891,0.8034 -0.5659,2.3893 v 0.6498 q 0,1.5999 0.60781,2.4173 0.60782,0.8174 1.78153,0.8174 1.1807,0 1.68372,-0.5031 v -1.7535 h -1.90728 v -1.544 h 4.00319 z"
               id="path12" /></g></g><g
           id="g24"><g
             id="g1395"
             transform="matrix(1.1422959,0,0,1.1422959,339.32832,532.68308)"
             style="fill:none;stroke:#191919;stroke-width:1.08712;stroke-miterlimit:4;stroke-dasharray:none" /></g></g><g
         id="g23"
         transform="translate(-5.1640175,13.161769)"><path
           id="rect23"
           style="opacity:1;fill:#f9f9f9;stroke:#1a1a1a;stroke-width:6.84062;paint-order:markers fill stroke"
           d="M 31.078047,574.55939 H 516.83818 c 0.90301,0 1.62999,0.72697 1.62999,1.62999 v 63.96422 c 0,0.90302 -0.72698,1.62999 -1.62999,1.62999 H 31.078047 c -0.903014,0 -1.62999,-0.72697 -1.62999,-1.62999 v -63.96422 c 0,-0.90302 0.726976,-1.62999 1.62999,-1.62999 z" /><path
           style="font-weight:900;font-size:29.3333px;line-height:1.25;font-family:Roboto;-inkscape-font-specification:'Roboto Heavy';text-align:center;letter-spacing:2px;word-spacing:0px;baseline-shift:baseline;white-space:pre;stroke-width:0.527806"
           d="m 210.0269,556.14842 h -2.72135 v 7.36197 h -5.02734 v -20.85415 h 8.20703 q 3.70963,0 5.80077,1.64714 2.09114,1.64713 2.09114,4.65494 0,2.17708 -0.88802,3.60937 -0.87369,1.43229 -2.74999,2.32031 l 4.35416,8.40754 v 0.21485 h -5.38541 z m -2.72135,-3.88151 h 3.17969 q 1.43229,0 2.14843,-0.74479 0.73047,-0.75911 0.73047,-2.10547 0,-1.34635 -0.73047,-2.10546 -0.73047,-0.77344 -2.14843,-0.77344 h -3.17969 z m 29.04164,2.40625 h -7.90624 v 4.97004 h 9.33853 v 3.86719 h -14.36587 v -20.85415 h 14.39451 v 3.88151 h -9.36717 v 4.39713 h 7.90624 z m 22.55336,6.25911 q -1.16016,1.28906 -3.39453,2.07682 -2.23437,0.78776 -4.89843,0.78776 -4.09635,0 -6.54557,-2.50651 -2.44921,-2.50651 -2.62109,-6.97525 l -0.0143,-1.80469 q 0,-3.07942 1.08854,-5.37109 1.08854,-2.30598 3.10807,-3.53775 2.03385,-1.2461 4.69791,-1.2461 3.89583,0 6.04427,1.79037 2.16275,1.77604 2.52083,5.31379 h -4.84114 q -0.25782,-1.74739 -1.11719,-2.49218 -0.85937,-0.74479 -2.43489,-0.74479 -1.89063,0 -2.92188,1.60416 -1.03124,1.60417 -1.04557,4.58333 v 1.26041 q 0,3.1224 1.0599,4.69792 1.07422,1.56119 3.36588,1.56119 1.96224,0 2.92187,-0.87369 v -3.23698 h -3.49479 v -3.45182 h 8.52213 z m 10.27863,2.57812 h -5.01301 v -20.85415 h 5.01301 z m 16.25129,-5.54297 q 0,-1.10286 -0.78776,-1.71874 -0.77344,-0.61589 -2.73567,-1.27474 -1.96224,-0.65885 -3.20833,-1.27474 -4.05338,-1.99088 -4.05338,-5.47135 0,-1.73307 1.0026,-3.05078 1.01693,-1.33202 2.86458,-2.06249 1.84765,-0.74479 4.15364,-0.74479 2.2487,0 4.02474,0.80208 1.79036,0.80208 2.77864,2.29166 0.98828,1.47526 0.98828,3.38021 h -5.01302 q 0,-1.27474 -0.78776,-1.97656 -0.77343,-0.70182 -2.10546,-0.70182 -1.34635,0 -2.13411,0.60156 -0.77344,0.58724 -0.77344,1.5039 0,0.80208 0.85937,1.46094 0.85938,0.64453 3.02214,1.34635 2.16275,0.6875 3.55207,1.48958 3.38021,1.94792 3.38021,5.37109 0,2.73567 -2.0625,4.29687 -2.0625,1.5612 -5.65754,1.5612 -2.53516,0 -4.59766,-0.90235 -2.04817,-0.91666 -3.09374,-2.49218 -1.03125,-1.58984 -1.03125,-3.65234 h 5.04166 q 0,1.67578 0.85937,2.47786 0.8737,0.78776 2.82162,0.78776 1.24609,0 1.96223,-0.52995 0.73047,-0.54427 0.73047,-1.51823 z M 311.407,546.53775 h -6.25911 v 16.97264 h -5.02733 v -16.97264 h -6.14453 v -3.88151 H 311.407 Z m 17.05337,8.13541 h -7.90624 v 4.97004 h 9.33853 v 3.86719 h -14.36587 v -20.85415 h 14.39452 v 3.88151 h -9.36718 v 4.39713 h 7.90624 z m 13.22916,1.47526 h -2.72135 v 7.36197 h -5.02734 v -20.85415 h 8.20702 q 3.70963,0 5.80078,1.64714 2.09114,1.64713 2.09114,4.65494 0,2.17708 -0.88802,3.60937 -0.8737,1.43229 -2.75,2.32031 l 4.35417,8.40754 v 0.21485 h -5.38541 z m -2.72135,-3.88151 h 3.17968 q 1.43229,0 2.14844,-0.74479 0.73047,-0.75911 0.73047,-2.10547 0,-1.34635 -0.73047,-2.10546 -0.73047,-0.77344 -2.14844,-0.77344 h -3.17968 z m 18.8867,6.55989 q 1.14583,0 1.90494,0.6875 0.75911,0.67317 0.75911,1.73307 0,1.05989 -0.75911,1.74739 -0.75911,0.67318 -1.90494,0.67318 -1.16016,0 -1.91927,-0.6875 -0.74479,-0.6875 -0.74479,-1.73307 0,-1.04557 0.74479,-1.73307 0.75911,-0.6875 1.91927,-0.6875 z m 0,-11.42968 q 1.14583,0 1.90494,0.6875 0.75911,0.67318 0.75911,1.73307 0,1.0599 -0.75911,1.7474 -0.75911,0.67317 -1.90494,0.67317 -1.16016,0 -1.91927,-0.68749 -0.74479,-0.6875 -0.74479,-1.73308 0,-1.04557 0.74479,-1.73307 0.75911,-0.6875 1.91927,-0.6875 z m 22.36196,12.24608 h 8.75129 v 3.86719 H 375.1895 v -20.85415 h 5.02734 z m 28.88407,-16.98696 v 13.64973 q 0,2.32031 -0.98828,4.02473 -0.98828,1.69011 -2.83594,2.57813 -1.84765,0.88802 -4.36848,0.88802 -3.80989,0 -6.0013,-1.97657 -2.1914,-1.97656 -2.23437,-5.41405 v -13.74999 h 5.05598 v 13.85025 q 0.0859,3.42317 3.17969,3.42317 1.56119,0 2.36328,-0.85937 0.80208,-0.85938 0.80208,-2.79297 v -13.62108 z m 7.90103,16.17056 q 1.14584,0 1.90495,0.6875 0.75911,0.67317 0.75911,1.73307 0,1.05989 -0.75911,1.74739 -0.75911,0.67318 -1.90495,0.67318 -1.16015,0 -1.91926,-0.6875 -0.74479,-0.6875 -0.74479,-1.73307 0,-1.04557 0.74479,-1.73307 0.75911,-0.6875 1.91926,-0.6875 z m 14.70442,-16.17056 4.65494,14.5091 4.64062,-14.5091 h 6.61718 v 20.85415 h -5.04166 v -4.86979 l 0.48698,-9.96874 -5.04166,14.83853 h -3.32292 l -5.05598,-14.85285 0.48698,9.98306 v 4.86979 h -5.02734 v -20.85415 z m 33.2096,16.95832 h -6.88931 l -1.20313,3.89583 h -5.37109 l 7.64843,-20.85415 h 4.72656 l 7.70572,20.85415 h -5.39973 z m -5.68619,-3.88151 h 4.48307 l -2.2487,-7.23306 z m 17.2539,9.5677 h -3.42318 l 7.11848,-22.64451 h 3.4375 z m 27.23694,-18.763 h -6.25911 v 16.97264 h -5.02734 v -16.97264 h -6.14452 v -3.88151 h 17.43097 z m 4.1198,16.97264 v -20.85415 h 7.49087 q 4.02474,0 6.11588,1.47526 2.10547,1.47526 2.10547,4.28255 0,1.61849 -0.74479,2.76432 -0.74479,1.14583 -2.1914,1.6901 1.63281,0.42969 2.5065,1.60417 0.8737,1.17447 0.8737,2.86458 0,3.0651 -1.94791,4.61197 -1.9336,1.53255 -5.74349,1.5612 z m 5.02734,-8.86588 v 4.99869 h 3.29426 q 1.36068,0 2.09115,-0.61588 0.73046,-0.63021 0.73046,-1.76172 0,-2.60677 -2.59244,-2.62109 z m 0,-3.29427 h 2.62109 q 1.64713,-0.0143 2.34895,-0.60156 0.70182,-0.58724 0.70182,-1.73307 0,-1.3177 -0.75911,-1.89062 -0.75911,-0.58724 -2.44922,-0.58724 h -2.46353 z m 32.76557,5.09896 q -0.10026,2.17708 -1.17448,3.85286 -1.07422,1.66145 -3.02213,2.57812 -1.93359,0.91667 -4.42578,0.91667 -4.11067,0 -6.47395,-2.67839 -2.36328,-2.67838 -2.36328,-7.56249 v -1.03125 q 0,-3.0651 1.0599,-5.35676 1.07421,-2.30599 3.07942,-3.55208 2.00521,-1.26042 4.64062,-1.26042 3.79557,0 6.10155,2.00521 2.30599,1.99088 2.6211,5.49999 h -5.01302 q -0.0573,-1.90494 -0.95963,-2.73567 -0.90235,-0.83073 -2.75,-0.83073 -1.8763,0 -2.75,1.40365 -0.87369,1.40364 -0.91666,4.48306 v 1.47526 q 0,3.33724 0.83072,4.76953 0.84506,1.43229 2.89323,1.43229 1.73307,0 2.64974,-0.81641 0.91666,-0.8164 0.97395,-2.59244 z m 21.80859,7.06119 h -4.99869 v -8.70833 h -7.40494 v 8.70833 h -5.02734 v -20.85415 h 5.02734 v 8.27864 h 7.40494 v -8.27864 h 4.99869 z m 18.11324,-8.83723 h -7.90625 v 4.97004 h 9.33854 v 3.86719 h -14.36587 v -20.85415 h 14.39451 v 3.88151 h -9.36718 v 4.39713 h 7.90625 z m 16.23698,3.29426 q 0,-1.10286 -0.78776,-1.71874 -0.77344,-0.61589 -2.73568,-1.27474 -1.96223,-0.65885 -3.20833,-1.27474 -4.05338,-1.99088 -4.05338,-5.47135 0,-1.73307 1.00261,-3.05078 1.01692,-1.33202 2.86458,-2.06249 1.84765,-0.74479 4.15364,-0.74479 2.24869,0 4.02473,0.80208 1.79036,0.80208 2.77864,2.29166 0.98829,1.47526 0.98829,3.38021 h -5.01302 q 0,-1.27474 -0.78776,-1.97656 -0.77344,-0.70182 -2.10547,-0.70182 -1.34635,0 -2.13411,0.60156 -0.77343,0.58724 -0.77343,1.5039 0,0.80208 0.85937,1.46094 0.85937,0.64453 3.02213,1.34635 2.16276,0.6875 3.55208,1.48958 3.38021,1.94792 3.38021,5.37109 0,2.73567 -2.0625,4.29687 -2.0625,1.5612 -5.65755,1.5612 -2.53515,0 -4.59765,-0.90235 -2.04817,-0.91666 -3.09375,-2.49218 -1.03124,-1.58984 -1.03124,-3.65234 h 5.04166 q 0,1.67578 0.85937,2.47786 0.8737,0.78776 2.82161,0.78776 1.24609,0 1.96224,-0.52995 0.73047,-0.54427 0.73047,-1.51823 z m 20.36194,0 q 0,-1.10286 -0.78776,-1.71874 -0.77344,-0.61589 -2.73568,-1.27474 -1.96224,-0.65885 -3.20833,-1.27474 -4.05338,-1.99088 -4.05338,-5.47135 0,-1.73307 1.0026,-3.05078 1.01693,-1.33202 2.86458,-2.06249 1.84766,-0.74479 4.15365,-0.74479 2.24869,0 4.02473,0.80208 1.79036,0.80208 2.77864,2.29166 0.98828,1.47526 0.98828,3.38021 h -5.01301 q 0,-1.27474 -0.78776,-1.97656 -0.77344,-0.70182 -2.10547,-0.70182 -1.34635,0 -2.13411,0.60156 -0.77344,0.58724 -0.77344,1.5039 0,0.80208 0.85938,1.46094 0.85937,0.64453 3.02213,1.34635 2.16276,0.6875 3.55208,1.48958 3.3802,1.94792 3.3802,5.37109 0,2.73567 -2.06249,4.29687 -2.0625,1.5612 -5.65755,1.5612 -2.53515,0 -4.59765,-0.90235 -2.04818,-0.91666 -3.09375,-2.49218 -1.03125,-1.58984 -1.03125,-3.65234 h 5.04166 q 0,1.67578 0.85938,2.47786 0.8737,0.78776 2.82161,0.78776 1.24609,0 1.96224,-0.52995 0.73047,-0.54427 0.73047,-1.51823 z"
           id="text21"
           transform="matrix(1.0862524,0,0,1.0862524,-175.68845,7.3259839)"
           aria-label="REGISTER: LU.MA/TBCHESS" /></g></g></g></svg>
